<?xml version="1.0" encoding="utf-8"?>
<svg id="master-artboard" viewBox="0 0 1400 980" version="1.1" xmlns="http://www.w3.org/2000/svg" x="0px" y="0px" enable-background="new 0 0 1400 980" width="1400px" height="980px" xmlns:xlink="http://www.w3.org/1999/xlink">

<defs>
			<path d="M -1526 -2.5 H -114.699951 V 985.400024 H -1526 V -2.5 Z" id="SVGID_2_"/>
		</defs><clipPath id="SVGID_1_">
			<use overflow="visible" xlink:href="#SVGID_2_"/>
		</clipPath><g transform="matrix(1, 0, 0, 1, -941.9299777955376, -517.6371950047549)">
			<path fill="#895881" d="M1148.1,777.4c-6.6-5.9-13.6-8.7-20.6-8.7c-11.6,0.2-20.5,8.4-20.5,8.5l-10.9-9.3&#10;&#9;&#9;&#9;&#9;c0.5-0.5,13.2-12.5,31.1-12.8c0.2,0,0.5,0,0.7,0c10.9,0,21.2,4.2,30.6,12.6L1148.1,777.4z"/>
		</g><path fill="#895881" d="M1010.3,846.6c-2.4,0-4.8-0.7-6.9-2.2c-3.7-2.6-5.7-7.1-5-11.6l5-33.2l-24.5-22.9&#10;&#9;&#9;&#9;c-3.3-3.1-4.6-7.9-3.3-12.2c1.3-4.4,5-7.6,9.5-8.4l33.1-5.5l14.2-30.4c1.9-4.1,6.1-6.8,10.6-6.9c0.1,0,0.2,0,0.2,0&#10;&#9;&#9;&#9;c4.5,0,8.6,2.5,10.6,6.5l15.4,29.8l33.3,4.2c4.5,0.6,8.3,3.7,9.8,8c1.5,4.3,0.4,9.1-2.8,12.4l-23.5,23.9l6.3,32.9&#10;&#9;&#9;&#9;c0.9,4.5-0.9,9.1-4.5,11.8c-2.1,1.6-4.7,2.4-7.2,2.4c-1.8,0-3.7-0.4-5.4-1.3l-30-15l-29.4,16.2&#10;&#9;&#9;&#9;C1014.3,846.1,1012.3,846.6,1010.3,846.6z" transform="matrix(1, 0, 0, 1, -941.9299777955376, -517.6371950047549)"/><path d="M 1043.4000244140625 725.4000244140625 L 1061.699951171875 760.7999877929688 L 1101.199951171875 765.7000122070312 L 1073.300048828125 794.0999755859375 L 1080.800048828125 833.2000122070312 L 1045.199951171875 815.4000244140625 L 1010.2999877929688 834.5999755859375 L 1016.2000122070312 795.2000122070312 L 987.0999755859375 768 L 1026.4000244140625 761.5 Z" fill="#60C9D9" transform="matrix(1, 0, 0, 1, -941.9299777955376, -517.6371950047549)"/><path d="M 1016.2000122070312 795.2000122070312 L 1014.7999877929688 804.5999755859375 L 1056.0999755859375 749.9000244140625 L 1051.0999755859375 740.2999877929688 L 1012.4000244140625 791.5999755859375 Z" fill="#ECF8FE" transform="matrix(1, 0, 0, 1, -941.9299777955376, -517.6371950047549)"/><path d="M 1061.699951171875 760.7999877929688 L 1058.800048828125 755.0999755859375 L 1013.0999755859375 815.5999755859375 L 1010.2999877929688 834.5999755859375 L 1032.5 822.2999877929688 L 1077.5 762.7000122070312 Z" fill="#ECF8FE" transform="matrix(1, 0, 0, 1, -941.9299777955376, -517.6371950047549)"/><path fill="#895881" d="M1176.2,846.6c-2.4,0-4.8-0.7-6.9-2.2c-3.7-2.6-5.7-7.1-5-11.6l5-33.2l-24.5-22.9&#10;&#9;&#9;&#9;c-3.3-3.1-4.6-7.9-3.3-12.2c1.3-4.4,5-7.6,9.5-8.4l33.1-5.5l14.2-30.4c1.9-4.1,6.1-6.8,10.6-6.9c0.1,0,0.2,0,0.2,0&#10;&#9;&#9;&#9;c4.5,0,8.6,2.5,10.6,6.5l15.4,29.8l33.3,4.2c4.5,0.6,8.3,3.7,9.8,8c1.5,4.3,0.4,9.1-2.8,12.4l-23.5,23.9l6.3,32.9&#10;&#9;&#9;&#9;c0.9,4.5-0.9,9.1-4.5,11.8c-2.1,1.6-4.7,2.4-7.2,2.4c-1.8,0-3.7-0.4-5.4-1.3l-30-15l-29.4,16.2&#10;&#9;&#9;&#9;C1180.2,846.1,1178.2,846.6,1176.2,846.6z" transform="matrix(1, 0, 0, 1, -941.9299777955376, -517.6371950047549)"/><path d="M 1209.300048828125 725.4000244140625 L 1227.5999755859375 760.7999877929688 L 1267.0999755859375 765.7000122070312 L 1239.199951171875 794.0999755859375 L 1246.699951171875 833.2000122070312 L 1211.0999755859375 815.4000244140625 L 1176.199951171875 834.5999755859375 L 1182.0999755859375 795.2000122070312 L 1153 768 L 1192.300048828125 761.5 Z" fill="#60C9D9" transform="matrix(1, 0, 0, 1, -941.9299777955376, -517.6371950047549)"/><path d="M 1182.0999755859375 795.2000122070312 L 1180.699951171875 804.5999755859375 L 1222 749.9000244140625 L 1217 740.2999877929688 L 1178.300048828125 791.5999755859375 Z" fill="#ECF8FE" transform="matrix(1, 0, 0, 1, -941.9299777955376, -517.6371950047549)"/><path d="M 1227.5999755859375 760.7999877929688 L 1224.699951171875 755.0999755859375 L 1179 815.5999755859375 L 1176.199951171875 834.5999755859375 L 1198.4000244140625 822.2999877929688 L 1243.4000244140625 762.7000122070312 Z" fill="#ECF8FE" transform="matrix(1, 0, 0, 1, -941.9299777955376, -517.6371950047549)"/><path d="M 1172.800049 861.599976 A 44 44 0 0 1 1128.800049 905.599976 A 44 44 0 0 1 1084.800049 861.599976 A 44 44 0 0 1 1128.800049 817.599976 A 44 44 0 0 1 1172.800049 861.599976 Z" fill="#ED1C24" transform="matrix(1, 0, 0, 1, -941.9299777955376, -517.6371950047549)"/>

</svg>