<?xml version="1.0" encoding="utf-8"?>
<svg id="master-artboard" viewBox="0 0 1096 780" version="1.1" xmlns="http://www.w3.org/2000/svg" x="0px" y="0px" style="enable-background:new 0 0 1096 780;" width="1096px" height="780px">


<path class="st1" d="M608.2,498.2c-3.9-15.8-14.5-15.8-14.5-15.8c-2.8,10.3-11.6,9.2-11.6,9.2v-55.8c-2-46.8-68-42.7-68-42.7l0,0&#10;&#9;&#9;c0,0-66.1-4.2-68,42.7v55.8c0,0-8.8,1.1-11.6-9.2c0,0-10.6,0-14.5,15.8c0,0-12.1,42.3,94.2,39.4v0&#10;&#9;&#9;C620.4,540.5,608.2,498.2,608.2,498.2z" style="fill: rgb(23, 23, 23);" transform="matrix(1.0000000000000002, 0, 0, 1.0000000000000002, 0, 0)"/>




</svg>