<?xml version="1.0" encoding="utf-8"?>
<svg id="master-artboard" viewBox="0 0 1400 980" version="1.0" xmlns="http://www.w3.org/2000/svg" x="0px" y="0px" width="1400px" height="980px" enable-background="new 0 0 1400 980">


<g id="XMLID_192_" transform="matrix(1, 0, 0, 1, -53.03659903548146, -173.96004248757293)">
				<path fill="#F16078" d="M311.1,463.9c50.5,0,101.5-10.3,101.5-30.1c0,0,0-0.1,0-0.1c0-1.4-0.1-1.9-7.7-17.6l-2.4-5.1l0,0&#10;&#9;&#9;&#9;&#9;&#9;c-1.4-2.9-2.9-6.1-4.7-9.8l0,0l-1.6-3.4c-11.9-24.6-32.3-66.4-67.4-137.7c7.6-5.5,12.5-14.3,12.5-24.4&#10;&#9;&#9;&#9;&#9;&#9;c0-16.6-13.5-30.1-30.1-30.1c-16.6,0-30.1,13.5-30.1,30.1c0,10,4.9,18.9,12.5,24.4c-35.1,71.3-55.5,113.1-67.4,137.7l-1.6,3.4&#10;&#9;&#9;&#9;&#9;&#9;l0,0c-1.8,3.7-3.3,6.9-4.7,9.8l0,0l-2.4,5.1c-7.6,15.8-7.7,16.3-7.7,17.6c0,0,0,0.1,0,0.1C209.6,453.6,260.7,463.9,311.1,463.9z&#10;&#9;&#9;&#9;&#9;&#9; M278.3,314c10.6,1,21.6,1.5,32.9,1.5c11.3,0,22.3-0.5,32.9-1.5c2.2,4.6,4.5,9.1,6.7,13.6c-24.8,2.9-54.3,2.9-79.1,0&#10;&#9;&#9;&#9;&#9;&#9;C273.8,323.1,276,318.5,278.3,314z M283,304.3l7.1-14.5c13.7,0.8,28.3,0.8,42,0l7.1,14.5C321.1,305.8,301.2,305.8,283,304.3z&#10;&#9;&#9;&#9;&#9;&#9; M355.4,337.1l6.8,13.9c-15.2,2.5-32.7,3.9-51,3.9c-18.3,0-35.8-1.3-51-3.9l6.8-13.9C294.2,340.7,328,340.7,355.4,337.1z&#10;&#9;&#9;&#9;&#9;&#9; M255.5,360.4c16.4,3,35.5,4.5,55.6,4.5c20.1,0,39.2-1.6,55.6-4.5c2.2,4.4,4.3,8.7,6.3,12.9c-17.2,3.9-38.8,6-61.9,6&#10;&#9;&#9;&#9;&#9;&#9;c-23.1,0-44.8-2.1-61.9-6C251.2,369.2,253.4,364.9,255.5,360.4z M383.9,395.6c-17.8,5.6-44.4,8.8-72.8,8.8&#10;&#9;&#9;&#9;&#9;&#9;c-28.4,0-55-3.3-72.8-8.8c2-4.1,4.1-8.4,6.3-13c18.2,4.4,41.6,6.7,66.5,6.7c24.8,0,48.2-2.4,66.5-6.7&#10;&#9;&#9;&#9;&#9;&#9;C379.8,387.1,381.9,391.5,383.9,395.6z M311.1,414.4c30.1,0,58.4-3.6,77.2-9.8c2,4.2,3.9,8,5.5,11.5&#10;&#9;&#9;&#9;&#9;&#9;c-15.9,7.7-48,12.7-82.7,12.7c-34.7,0-66.9-5-82.7-12.7c1.7-3.4,3.5-7.3,5.5-11.5C252.7,410.8,281.1,414.4,311.1,414.4z&#10;&#9;&#9;&#9;&#9;&#9; M311.1,220.7c8.3,0,15,6.7,15,15s-6.7,15-15,15c-8.3,0-15-6.7-15-15S302.8,220.7,311.1,220.7z M311.1,265.9&#10;&#9;&#9;&#9;&#9;&#9;c3,0,5.9-0.5,8.6-1.3c2.5,5.1,5,10.2,7.6,15.4c-10.7,0.5-21.7,0.5-32.3,0c2.6-5.2,5.1-10.3,7.6-15.4&#10;&#9;&#9;&#9;&#9;&#9;C305.3,265.4,308.1,265.9,311.1,265.9z M224.1,425.2c17.5,8.4,50.6,13.6,87.1,13.6s69.5-5.3,87.1-13.6c2.7,5.6,3.8,8.2,4.3,9.3&#10;&#9;&#9;&#9;&#9;&#9;c0,0.1-0.1,0.2-0.1,0.3c0,0.1-0.1,0.2-0.2,0.4c0,0,0,0.1-0.1,0.1c-3.1,5.5-22.8,13.6-57.1,17c-0.7,0.1-1.4,0.1-2.1,0.2&#10;&#9;&#9;&#9;&#9;&#9;c-0.8,0.1-1.5,0.1-2.3,0.2c-0.7,0.1-1.3,0.1-2,0.2c-2.4,0.2-4.8,0.4-7.3,0.5c-0.2,0-0.4,0-0.6,0c-6.2,0.3-12.8,0.5-19.7,0.5&#10;&#9;&#9;&#9;&#9;&#9;c-7,0-13.5-0.2-19.7-0.5c-0.2,0-0.4,0-0.6,0c-2.5-0.1-4.9-0.3-7.3-0.5c-0.7-0.1-1.3-0.1-2-0.2c-0.8-0.1-1.5-0.1-2.3-0.2&#10;&#9;&#9;&#9;&#9;&#9;c-0.7-0.1-1.4-0.1-2.1-0.2c-34.3-3.4-54.1-11.6-57.1-17c0,0,0-0.1-0.1-0.1c-0.1-0.1-0.1-0.2-0.2-0.4c0-0.1-0.1-0.2-0.1-0.3&#10;&#9;&#9;&#9;&#9;&#9;C220.2,433.4,221.4,430.8,224.1,425.2z"/>
			</g></svg>