<?xml version="1.0" encoding="utf-8"?>
<svg id="master-artboard" viewBox="0 0 1400 980" version="1.0" xmlns="http://www.w3.org/2000/svg" x="0px" y="0px" width="1400px" height="980px" enable-background="new 0 0 1400 980">


<g id="XMLID_237_" transform="matrix(1.0000000149011612, 0, 0, 1.0000000149011612, 0, 0)">
				<path d="M 686.299975 745.900024 A 7.7 7.7 0 0 1 678.599976 753.600024 A 7.7 7.7 0 0 1 670.899976 745.900024 A 7.7 7.7 0 0 1 678.599976 738.200025 A 7.7 7.7 0 0 1 686.299975 745.900024 Z" id="XMLID_343_" fill="#F16078" style="fill: rgb(242, 188, 80);"/>
			</g><g id="XMLID_238_" transform="matrix(1.0000000149011612, 0, 0, 1.0000000149011612, 0, 0)">
				<path d="M 637.7 749.299988 A 7.7 7.7 0 0 1 630 756.999988 A 7.7 7.7 0 0 1 622.3 749.299988 A 7.7 7.7 0 0 1 630 741.599988 A 7.7 7.7 0 0 1 637.7 749.299988 Z" id="XMLID_342_" fill="#F16078" style="fill: rgb(242, 188, 80);"/>
			</g><g id="XMLID_239_" transform="matrix(1.0000000149011612, 0, 0, 1.0000000149011612, 0, 0)">
				<path d="M 593.799975 744.200012 A 7.7 7.7 0 0 1 586.099976 751.900012 A 7.7 7.7 0 0 1 578.399976 744.200012 A 7.7 7.7 0 0 1 586.099976 736.500012 A 7.7 7.7 0 0 1 593.799975 744.200012 Z" id="XMLID_341_" fill="#F16078" style="fill: rgb(242, 188, 80);"/>
			</g><g id="XMLID_240_" transform="matrix(1.0000000149011612, 0, 0, 1.0000000149011612, 0, 0)">
				<path d="M 733.299975 733.099976 A 7.7 7.7 0 0 1 725.599976 740.799975 A 7.7 7.7 0 0 1 717.899976 733.099976 A 7.7 7.7 0 0 1 725.599976 725.399976 A 7.7 7.7 0 0 1 733.299975 733.099976 Z" id="XMLID_340_" fill="#F16078" style="fill: rgb(242, 188, 80);"/>
			</g><g id="XMLID_241_" transform="matrix(1.0000000149011612, 0, 0, 1.0000000149011612, 0, 0)">
				<path d="M 773.100024 713.799988 A 7.7 7.7 0 0 1 765.400024 721.499988 A 7.7 7.7 0 0 1 757.700025 713.799988 A 7.7 7.7 0 0 1 765.400024 706.099988 A 7.7 7.7 0 0 1 773.100024 713.799988 Z" id="XMLID_339_" fill="#F16078" style="fill: rgb(242, 188, 80);"/>
			</g><g id="XMLID_244_" transform="matrix(1.0000000149011612, 0, 0, 1.0000000149011612, 0, 0)">
				<path fill="#F16078" d="M774.7,556.4c-16.4,2.8-27.4,18.3-24.6,34.7c0.9,5.3,3.2,10,6.3,13.9l-34.2,38.9l-49.3-53.2&#10;&#9;&#9;&#9;&#9;&#9;c4.9-6.4,7.3-14.8,5.9-23.4c-2.8-16.4-18.3-27.4-34.7-24.6c-16.4,2.8-27.4,18.3-24.6,34.7c1.5,8.6,6.5,15.7,13.2,20.1l-29,66.5&#10;&#9;&#9;&#9;&#9;&#9;l-45.1-25.5c1.7-4.7,2.3-9.9,1.4-15.2c-2.8-16.4-18.3-27.4-34.7-24.6c-16.4,2.8-27.4,18.3-24.6,34.7s18.3,27.4,34.7,24.6&#10;&#9;&#9;&#9;&#9;&#9;c0.1,0,0.2,0,0.3-0.1l18.7,52l6.3,37c2.1,12.5,16.2,21.1,40.8,25.1c22.5,3.6,51.3,2.8,81.2-2.2S740,756,760,745.2&#10;&#9;&#9;&#9;&#9;&#9;c21.9-11.9,32.3-24.7,30.2-37.2l-6.3-37l0.5-55.3c0.1,0,0.2,0,0.3,0c16.4-2.8,27.4-18.3,24.6-34.7S791,553.6,774.7,556.4z&#10;&#9;&#9;&#9;&#9;&#9; M717.6,653.7l9.4,55.1c-13.5,5.1-29.5,9.5-47.4,12.9L659,600.7c2.3-0.8,4.5-1.9,6.6-3.2L717.6,653.7z M646.6,557.5&#10;&#9;&#9;&#9;&#9;&#9;c8.2-1.4,16,4.1,17.3,12.3c1.4,8.2-4.1,16-12.3,17.3c-8.2,1.4-16-4.1-17.3-12.3C632.9,566.7,638.4,558.9,646.6,557.5z&#10;&#9;&#9;&#9;&#9;&#9; M611.3,671.7l30.6-70.2c2.3,0.6,4.8,0.9,7.3,0.9l20.5,120.9c-18,2.8-34.6,3.8-49,3.5L611.3,671.7z M532.9,643.2&#10;&#9;&#9;&#9;&#9;&#9;c-8.2,1.4-16-4.1-17.3-12.3c-1.4-8.2,4.1-16,12.3-17.3c8.2-1.4,16,4.1,17.3,12.3C546.6,634,541.1,641.8,532.9,643.2z&#10;&#9;&#9;&#9;&#9;&#9; M545.1,654.5c3.3-1.9,6.2-4.4,8.6-7.3l47.9,27l8.8,52.1c-27.2-2-44.6-9.2-46.2-18.5L545.1,654.5z M780.3,709.7&#10;&#9;&#9;&#9;&#9;&#9;C783,725,742.8,749.5,681,760c-61.8,10.5-107.8,0.7-110.4-14.7l-3.3-19.4c0.3,0.2,0.7,0.4,1.1,0.6c0.4,0.2,0.8,0.5,1.3,0.7&#10;&#9;&#9;&#9;&#9;&#9;c0.5,0.3,1,0.5,1.5,0.7c0.5,0.2,0.9,0.4,1.4,0.6c0.6,0.2,1.1,0.5,1.7,0.7c0.5,0.2,1,0.4,1.5,0.6c0.6,0.2,1.3,0.4,1.9,0.7&#10;&#9;&#9;&#9;&#9;&#9;c0.5,0.2,1,0.4,1.5,0.5c0.7,0.2,1.4,0.4,2.1,0.6c0.5,0.1,1,0.3,1.5,0.4c0.8,0.2,1.6,0.4,2.4,0.6c0.5,0.1,1,0.3,1.5,0.4&#10;&#9;&#9;&#9;&#9;&#9;c0.9,0.2,1.9,0.4,2.9,0.6c0.4,0.1,0.8,0.2,1.3,0.3c1.4,0.3,2.9,0.5,4.4,0.8c22.5,3.6,51.3,2.8,81.2-2.2&#10;&#9;&#9;&#9;&#9;&#9;c29.9-5.1,57.3-13.8,77.3-24.7c1.3-0.7,2.6-1.4,3.9-2.2c0.4-0.2,0.8-0.5,1.2-0.7c0.8-0.5,1.7-1,2.5-1.5c0.5-0.3,0.9-0.6,1.3-0.9&#10;&#9;&#9;&#9;&#9;&#9;c0.7-0.4,1.4-0.9,2-1.3c0.4-0.3,0.9-0.6,1.3-0.9c0.6-0.4,1.2-0.9,1.8-1.3c0.4-0.3,0.8-0.7,1.3-1c0.5-0.4,1.1-0.8,1.6-1.3&#10;&#9;&#9;&#9;&#9;&#9;c0.4-0.3,0.8-0.7,1.2-1c0.5-0.4,0.9-0.8,1.4-1.2c0.4-0.3,0.7-0.7,1.1-1c0.4-0.4,0.8-0.8,1.2-1.2c0.3-0.4,0.7-0.7,1-1.1&#10;&#9;&#9;&#9;&#9;&#9;c0.3-0.3,0.6-0.6,0.8-0.9L780.3,709.7z M773.9,671.3l0.1,0.9c1.6,9.3-12.5,21.9-37.5,32.7l-8.8-52.1l36.3-41.3&#10;&#9;&#9;&#9;&#9;&#9;c3.2,2,6.7,3.3,10.5,4L773.9,671.3z M782.2,600.8c-8.2,1.4-16-4.1-17.3-12.3c-1.4-8.2,4.1-16,12.3-17.3&#10;&#9;&#9;&#9;&#9;&#9;c8.2-1.4,16,4.1,17.3,12.3C795.9,591.7,790.4,599.5,782.2,600.8z" style="fill: rgb(242, 188, 80);"/>
			</g></svg>