<?xml version="1.0" encoding="utf-8"?>
<svg id="master-artboard" viewBox="0 0 1400 980" version="1.1" xmlns="http://www.w3.org/2000/svg" x="0px" y="0px" enable-background="new 0 0 1400 980" width="1400px" height="980px">
<path fill="#DC2328" d="M1028.3,631.5C1028.3,631.5,1028.3,631.5,1028.3,631.5C1028.3,631.5,1028.3,631.5,1028.3,631.5z" transform="matrix(1.0000000149011612, 0, 0, 1.0000000149011612, 1.4210854715202004e-14, 2.842170943040401e-14)"/><g transform="matrix(1.0000000149011612, 0, 0, 1.0000000149011612, 1.4210854715202004e-14, 2.1316282072803006e-14)">
				<g>
					<g>
						<path fill="#BBD7E5" d="M361.8,433.8c-0.2-0.8-32.8,13.1-35.5,14.5c-23.8,12-45.7,27.9-63.8,47.5c-1.1,1.3-2.2,2.6-3.3,4&#10;&#9;&#9;&#9;&#9;&#9;&#9;&#9;c-2.6,3.2-5.2,6.6-7.6,10.1c-6.4,9.6-10.7,20.3-5.6,32.1c5.9,13.5,20.8,21.9,35.4,18.7c0,0,7.3-1.6,18.1-3.9l84.8-18.3&#10;&#9;&#9;&#9;&#9;&#9;&#9;&#9;c0.1,0-0.1,0,0,0c0,0-1.6,0.3,0,0C384.2,538.6,361.9,434.2,361.8,433.8z"/>
					</g>
					<g>
						<path fill="#A6BEC9" d="M384.2,538.6C384.9,538.4,383.2,538.8,384.2,538.6C384.3,538.5,384.1,538.6,384.2,538.6&#10;&#9;&#9;&#9;&#9;&#9;&#9;&#9;c15.2-3.3,65.2-14.1,90.5-19.5c10.8-2.3,18-3.9,18.1-3.9c14.5-3.1,24.7-16.9,24.5-31.7c-0.2-12.8-8.5-20.8-18.3-26.9&#10;&#9;&#9;&#9;&#9;&#9;&#9;&#9;c-3.6-2.2-7.4-4.2-11.1-6.1c-16.8-8.6-35.1-12-53.5-15.5c-23.6-4.4-46.8-4.4-72.5-1.2C361.8,433.8,384.2,538.6,384.2,538.6z"/>
					</g>
				</g>
				<g>
					<path fill="#067091" d="M293.6,554.2l-3.8-17.5c0,0,32.7-17.7,87.6-29.5l3.7,17.1C381.1,524.3,323.3,537.6,293.6,554.2z"/>
				</g>
				<g>
					<path fill="#015474" d="M473.5,515.4l-3.8-17.5c0,0-37.4-2.6-92.3,9.3l3.7,17.1C381.1,524.3,439.6,512.6,473.5,515.4z"/>
				</g>
				<g>
					<path fill="#015474" d="M375.4,496.7L375.4,496.7c-12.7,2.7-25.2-5.3-28-18.1l0,0c-2.7-12.7,5.3-25.2,18.1-28h0&#10;&#9;&#9;&#9;&#9;&#9;&#9;c12.7-2.7,25.2,5.3,28,18.1v0C396.2,481.5,388.1,494,375.4,496.7z"/>
				</g>
				<g>
					<path fill="#023D4F" d="M373.9,490L373.9,490c-9,1.9-17.8-3.8-19.8-12.8l0,0c-1.9-9,3.8-17.8,12.8-19.8h0&#10;&#9;&#9;&#9;&#9;&#9;&#9;c9-1.9,17.8,3.8,19.8,12.8l0,0C388.6,479.2,382.9,488.1,373.9,490z"/>
				</g>
				<g>
					<g>
						<path fill="#067091" d="M294.4,557.9c0,0,28.8,19.6,95.3,5.3l-8.8-40.1C324.1,535.3,294.4,557.9,294.4,557.9z"/>
					</g>
					<g>
						<path fill="#015474" d="M474.3,519.1c0,0-36.6-8.3-93.4,3.9l8.8,40.1C456.2,548.9,474.3,519.1,474.3,519.1z"/>
					</g>
				</g>
				<g>
					<path fill="#033F51" d="M381.2,524.3c0,0-57.8,13.4-87.6,29.9l0.8,3.7C324.1,541.3,382,528,382,528s58.4-11.7,92.4-8.8&#10;&#9;&#9;&#9;&#9;&#9;&#9;l-0.8-3.7C439.6,512.6,381.2,524.3,381.2,524.3z"/>
				</g>
			</g><g transform="matrix(1.0000000149011612, 0, 0, 1.0000000149011612, 1.4210854715202004e-14, 2.842170943040401e-14)">
					<path fill="#D4E8F2" d="M299.5,544.2l-2-4.3c0.8-0.4,80.4-36.6,166.3-35.8l0,4.8C379,508.1,300.3,543.9,299.5,544.2z"/>
				</g>
</svg>