<?xml version="1.0" encoding="utf-8"?>
<svg id="master-artboard" viewBox="0 0 1400 980" version="1.1" xmlns="http://www.w3.org/2000/svg" x="0px" y="0px" enable-background="new 0 0 1400 980" width="1400px" height="980px">

<g transform="matrix(1.520727419172564, -0.20962844378256018, 0.20962844378256018, 1.520727419172564, -140.19610490240746, -72.56609105184307)"><g transform="matrix(1.0000000149011612, 0, 0, 1.0000000149011612, -779.7493402324518, -118.7697695310379)">
				<g>
					<path fill="#CE4F27" d="M861.9,377.4c0,0,0.2-0.5,0.6-1.5C862.2,376.4,862,376.9,861.9,377.4z"/>
				</g>
				<g>
					<path fill="#CE4F27" d="M961.2,374.9l13.5-73c-74.9-13.8-107.6,62.4-112.1,73.9C868.1,366.2,910.8,365.7,961.2,374.9z"/>
				</g>
				<g>
					<path fill="#A03B22" d="M862.5,375.9c-0.4,0.9-0.6,1.5-0.6,1.5c-2,11.1,39.1,27.9,91.8,37.7l3.7-20.1l3.7-20.1&#10;&#9;&#9;&#9;&#9;&#9;&#9;C910.8,365.7,868.1,366.2,862.5,375.9z"/>
				</g>
				<g>
					<path fill="#CE4F27" d="M1052.9,410.6c0.1,1.3,0.1,2.1,0.1,2.1C1053.1,412,1053,411.3,1052.9,410.6z"/>
				</g>
				<g>
					<path fill="#B74426" d="M1052.9,410.6c-0.8-14-8.6-95.8-78.2-108.6l-13.5,73C1010.7,384.1,1050,399.5,1052.9,410.6z"/>
				</g>
				<g>
					<path fill="#82291A" d="M1052.9,410.6c-2.8-11-42.1-26.5-91.7-35.6l-3.7,20.1l-3.7,20.1c52.7,9.7,97.2,8.6,99.2-2.4&#10;&#9;&#9;&#9;&#9;&#9;&#9;C1053,412.6,1052.9,411.9,1052.9,410.6z"/>
				</g>
			</g><path fill="#B74426" d="M1002.4,317.1l6.7-0.2c23.5-0.7,43.4-17.7,47.6-40.8l1.2-6.5l5.4,24.5c5.3,24-7.6,48.3-30.5,57.3l0,0&#10;&#9;&#9;&#9;&#9;&#9;L1002.4,317.1z" transform="matrix(1.0000000149011612, 0, 0, 1.0000000149011612, -779.7493402324518, -118.7697695310379)"/><path fill="#CE4F27" d="M943.5,306.3l-6.2-2.6c-21.7-9-34.2-32-29.9-55.1l1.2-6.5l-13.8,21c-13.5,20.5-10.1,47.8,8,64.4h0&#10;&#9;&#9;&#9;&#9;&#9;L943.5,306.3z" transform="matrix(1.0000000149011612, 0, 0, 1.0000000149011612, -779.7493402324518, -118.7697695310379)"/></g></svg>