<?xml version="1.0" encoding="utf-8"?>
<svg id="master-artboard" viewBox="0 0 1400 980" version="1.1" xmlns="http://www.w3.org/2000/svg" x="0px" y="0px" enable-background="new 0 0 1400 980" width="1400px" height="980px" xmlns:xlink="http://www.w3.org/1999/xlink">

<defs>
			<path d="M -1526 -2.5 H -114.699951 V 985.400024 H -1526 V -2.5 Z" id="SVGID_2_"/>
		</defs><clipPath id="SVGID_1_">
			<use overflow="visible" xlink:href="#SVGID_2_"/>
		</clipPath>

<path fill="#895881" d="M854.5,752.3c-4.2-3-25.2,13.8-48.6,10.8s-69-31.8-105,0.6c-36-32.4-81.6-3.6-105-0.6&#10;&#9;&#9;c-23.4,3-44.4-13.8-48.6-10.8c-4.2,3-6.6,52.2,23.4,89.4c30,37.2,82.2,33.6,99.2,15.7c17-17.8,31-19.9,31-19.9s13.9,2.1,31,19.9&#10;&#9;&#9;c17,17.8,69.2,21.4,99.2-15.7C861.1,804.5,858.7,755.3,854.5,752.3z M603.8,796.7c0,0,49.2-30.6,69.6,21.6&#10;&#9;&#9;C674.8,821.9,611,841.7,603.8,796.7z M728.6,818.3c20.4-52.2,69.6-21.6,69.6-21.6C791,841.7,727.2,821.9,728.6,818.3z" transform="matrix(1.0000000000000002, 0, 0, 1.0000000000000002, 2.842170943040401e-14, 7.105427357601002e-15)"/></svg>