<?xml version="1.0" encoding="utf-8"?>
<svg id="master-artboard" viewBox="0 0 1400 980" version="1.1" xmlns="http://www.w3.org/2000/svg" x="0px" y="0px" style="enable-background:new 0 0 1400 980;" width="1400px" height="980px">

<radialGradient id="SVGID_1_" cx="700" cy="490" r="1030.8511" gradientTransform="matrix(1 0 0 0.7021 0 145.995)" gradientUnits="userSpaceOnUse">
		<stop offset="0" style="stop-color:#FFFAC6"/>
		<stop offset="0.2252" style="stop-color:#FFF9C3"/>
		<stop offset="0.3919" style="stop-color:#FFF5BA"/>
		<stop offset="0.5398" style="stop-color:#FFF1AC"/>
		<stop offset="0.6768" style="stop-color:#FFEB99"/>
		<stop offset="0.8062" style="stop-color:#FFE481"/>
		<stop offset="0.9284" style="stop-color:#FFDB61"/>
		<stop offset="1" style="stop-color:#FFD546"/>
	</radialGradient>

<path class="st7" d="M607.9,712.6c-13.6,3.6-33.3,1.4-46.1-4.3c-17-7.6-27.5-22.1-37.9-37c-10.7-15.4-14.9-32.7-23.4-49.2&#10;&#9;&#9;c-12.1-23.5-37-33-61.3-22.5c-18.6,8.1-30.1,26.7-40,43.5c-0.2,0.3-0.4,0.7-0.6,1c15.5-14,27.7-32.3,49-38&#10;&#9;&#9;c25.4-6.8,44.8,19,54,38.5c6.7,14.3,11.3,29.2,19.7,42.6c10.2,16.3,25.7,29.1,43.7,35.6c16.8,6.1,35.8,3.8,51.4-4.4&#10;&#9;&#9;c14.1-7.4,21.5-21.2,24.7-36C635.9,696.8,623.5,708.5,607.9,712.6z" style="fill: rgb(155, 120, 86);" transform="matrix(1.0000000000000002, 0, 0, 1.0000000000000002, 1.4210854715202004e-14, 7.105427357601002e-15)"/><path class="st7" d="M404.6,620.9c8.1-11.6,18.4-21.1,30.9-27.7c22.6-11.9,49.6-4.9,64.8,15.1c8.3,10.9,12.2,23,16.9,35.7&#10;&#9;&#9;c6.6,17.8,19.3,35.5,32.7,48.8c15.6,15.4,47.3,19.1,66.7,9.3c15.2-7.7,21.3-25.4,19.7-41.5c-2.3,15.6-17.7,30.2-31.9,35.7&#10;&#9;&#9;c-34.2,13.1-61.9-22.2-75.3-48.1c-9.5-18.3-17-37.1-31-52.6c-17.7-19.5-43.2-21.5-66-10.1c-19.9,9.9-32.1,30.8-41.1,50.2&#10;&#9;&#9;c-2.3,5.1-4.6,10.8-7.6,15.5C392.4,643,397.4,631.2,404.6,620.9z" style="fill: rgb(155, 120, 86);" transform="matrix(1.0000000000000002, 0, 0, 1.0000000000000002, 1.4210854715202004e-14, 7.105427357601002e-15)"/><path class="st7" d="M611.3,728.1c-28.1,10.5-56.7,2.2-78.6-17.2c-27.1-24-28.5-63.2-53.2-88.1c-34.7-34.8-59.6,18.6-88.3,35.7&#10;&#9;&#9;c10.5-2.2,20.1-6.5,29.7-15.1c8.7-7.8,17.6-21.6,31-21c36.2,1.6,36.4,44.8,48,69.6c17,36.4,62.7,56,101.1,48.7&#10;&#9;&#9;c21.3-4,37.1-20.9,43.4-41c2.1-6.7,2.6-13.5,1.9-20C645.1,700.5,631.3,720.6,611.3,728.1z" style="fill: rgb(155, 120, 86);" transform="matrix(1.0000000000000002, 0, 0, 1.0000000000000002, 1.4210854715202004e-14, 7.105427357601002e-15)"/><path class="st7" d="M247.3,622.8c-24.8,24.9-26.1,64.1-53.2,88.1c-21.9,19.4-50.6,27.6-78.6,17.2c-19.9-7.4-33.8-27.6-35-48.5&#10;&#9;&#9;c-0.7,6.6-0.2,13.3,1.9,20c6.3,20,22.1,37,43.4,41c38.4,7.3,84.1-12.3,101.1-48.7c11.6-24.8,11.8-67.9,48-69.6&#10;&#9;&#9;c13.5-0.6,22.4,13.2,31,21c9.6,8.6,19.2,12.9,29.7,15.1C306.9,641.3,282,587.9,247.3,622.8z" style="fill: rgb(155, 120, 86);" transform="matrix(1.0000000000000002, 0, 0, 1.0000000000000002, 1.4210854715202004e-14, 7.105427357601002e-15)"/><path class="st7" d="M110.4,718.4c15.6,8.2,34.5,10.6,51.4,4.4c18-6.6,33.6-19.3,43.7-35.6c8.4-13.4,13-28.4,19.7-42.6&#10;&#9;&#9;c9.1-19.6,28.6-45.3,54-38.5c21.2,5.7,33.5,24,49,38c-0.2-0.3-0.4-0.7-0.6-1c-9.9-16.7-21.4-35.4-40-43.5&#10;&#9;&#9;c-24.2-10.5-49.2-1-61.3,22.5c-8.4,16.5-12.6,33.8-23.4,49.2c-10.4,14.9-20.9,29.4-37.9,37c-12.8,5.8-32.5,7.9-46.1,4.3&#10;&#9;&#9;c-15.5-4.1-28-15.9-33.2-30.3C88.8,697.1,96.2,710.9,110.4,718.4z" style="fill: rgb(155, 120, 86);" transform="matrix(1.0000000000000002, 0, 0, 1.0000000000000002, 1.4210854715202004e-14, 7.105427357601002e-15)"/><path class="st7" d="M294.7,585.5c-22.7-11.4-48.2-9.4-66,10.1c-14,15.5-21.5,34.3-31,52.6c-13.5,25.9-41.2,61.3-75.3,48.1&#10;&#9;&#9;c-14.2-5.5-29.6-20.1-31.9-35.7c-1.7,16,4.4,33.7,19.7,41.5c19.4,9.8,51.1,6.2,66.7-9.3c13.4-13.2,26.1-30.9,32.7-48.8&#10;&#9;&#9;c4.7-12.7,8.6-24.9,16.9-35.7c15.2-20,42.2-27,64.8-15.1c12.5,6.6,22.8,16.1,30.9,27.7c7.2,10.3,12.3,22.1,21.2,30.4&#10;&#9;&#9;c-3-4.8-5.3-10.4-7.6-15.5C326.8,616.3,314.5,595.4,294.7,585.5z" style="fill: rgb(155, 120, 86);" transform="matrix(1.0000000000000002, 0, 0, 1.0000000000000002, 1.4210854715202004e-14, 7.105427357601002e-15)"/><path class="st12" d="M361.6,657.9c-16.4-4.9-20.9-28.5-28.5-42c-7-12.4-16.6-23-27.9-31.5c-22.5-16.8-52.1-17-74.2,0&#10;&#9;&#9;c-24.9,19.1-33.1,52.6-49.5,77.9c-11.6,17.9-31.2,32-53.3,28.2c-20.6-3.6-40-28-26.9-47.8c1-1.5,0-3.2-1.4-3.9&#10;&#9;&#9;c-0.3-1.3-2-2.2-3.4-1.1c-26.1,20.4-30,60.8-8.9,86.2c25.3,30.4,66.3,29.2,99.6,13.2c15.2-7.3,27.9-18.7,37.8-32.2&#10;&#9;&#9;c13.5-18.5,13.5-42.1,24.7-61.5c10.5-18.1,29.4-18,43.1-4.5c6.4,6.3,12.1,12.5,19.5,17.6c13.4,9.2,33.7,14.1,49,7.1&#10;&#9;&#9;c1.1-0.5,0.9-1.7,0.2-2.4C363.2,660.8,363.4,658.5,361.6,657.9z M305.8,643.4c-8.7-7.8-17.6-21.6-31-21&#10;&#9;&#9;c-36.2,1.6-36.4,44.8-48,69.6c-17,36.4-62.7,56-101.1,48.7c-21.3-4-37.1-20.9-43.4-41c-2.1-6.7-2.6-13.5-1.9-20&#10;&#9;&#9;c1.2,20.9,15.1,41,35,48.5c28.1,10.5,56.7,2.2,78.6-17.2c27.1-24,28.5-63.2,53.2-88.1c34.7-34.8,59.6,18.6,88.3,35.7&#10;&#9;&#9;C325.1,656.3,315.5,652,305.8,643.4z M85.6,682.4c5.2,14.4,17.7,26.1,33.2,30.3c13.6,3.6,33.3,1.4,46.1-4.3&#10;&#9;&#9;c17-7.6,27.5-22.1,37.9-37c10.7-15.4,14.9-32.7,23.4-49.2c12.1-23.5,37-33,61.3-22.5c18.6,8.1,30.1,26.7,40,43.5&#10;&#9;&#9;c0.2,0.3,0.4,0.7,0.6,1c-15.5-14-27.7-32.3-49-38c-25.4-6.8-44.8,19-54,38.5c-6.7,14.3-11.3,29.2-19.7,42.6&#10;&#9;&#9;c-10.2,16.3-25.7,29.1-43.7,35.6c-16.8,6.1-35.8,3.8-51.4-4.4C96.2,710.9,88.8,697.1,85.6,682.4z M322.1,620.9&#10;&#9;&#9;c-8.1-11.6-18.4-21.1-30.9-27.7c-22.5-11.9-49.6-4.9-64.8,15.1c-8.3,10.9-12.2,23-16.9,35.7c-6.6,17.8-19.3,35.5-32.7,48.8&#10;&#9;&#9;c-15.6,15.4-47.3,19.1-66.7,9.3c-15.2-7.7-21.3-25.4-19.7-41.5c2.3,15.6,17.7,30.2,31.9,35.7c34.2,13.1,61.9-22.2,75.3-48.1&#10;&#9;&#9;c9.5-18.3,17-37.1,31-52.6c17.7-19.5,43.2-21.5,66-10.1c19.9,9.9,32.1,30.8,41.1,50.2c2.3,5.1,4.6,10.8,7.6,15.5&#10;&#9;&#9;C334.4,643,329.4,631.2,322.1,620.9z" style="fill: rgb(101, 78, 53);" transform="matrix(1.0000000000000002, 0, 0, 1.0000000000000002, 1.4210854715202004e-14, 7.105427357601002e-15)"/><path class="st12" d="M414.3,656.6c7.4-5.1,13.1-11.3,19.5-17.6c13.7-13.5,32.6-13.6,43.1,4.5c11.3,19.4,11.2,43,24.7,61.5&#10;&#9;&#9;c9.9,13.5,22.6,24.9,37.8,32.2c33.3,15.9,74.3,17.1,99.6-13.2c21.2-25.4,17.2-65.9-8.9-86.2c-1.4-1.1-3.1-0.2-3.4,1.1&#10;&#9;&#9;c-1.4,0.7-2.4,2.4-1.4,3.9c13.1,19.9-6.3,44.3-26.9,47.8c-22.1,3.8-41.7-10.3-53.3-28.2c-16.4-25.4-24.6-58.8-49.5-77.9&#10;&#9;&#9;c-22.1-17-51.7-16.8-74.2,0c-11.4,8.5-20.9,19.1-27.9,31.5c-7.6,13.5-12.1,37.1-28.5,42c-1.8,0.5-1.6,2.9-0.1,3.4&#10;&#9;&#9;c-0.7,0.7-0.8,1.9,0.2,2.4C380.6,670.8,400.9,665.9,414.3,656.6z M644.5,699.7c-6.3,20-22.1,37-43.4,41&#10;&#9;&#9;c-38.4,7.3-84.1-12.3-101.1-48.7c-11.6-24.8-11.8-67.9-48-69.6c-13.5-0.6-22.4,13.2-31,21c-9.6,8.6-19.2,12.9-29.7,15.1&#10;&#9;&#9;c28.6-17.1,53.6-70.6,88.3-35.7c24.8,24.9,26.1,64.1,53.2,88.1c21.9,19.4,50.6,27.6,78.6,17.2c19.9-7.4,33.8-27.6,35-48.5&#10;&#9;&#9;C647.1,686.2,646.6,693,644.5,699.7z M616.4,718.4c-15.6,8.2-34.5,10.6-51.4,4.4c-18-6.6-33.6-19.3-43.7-35.6&#10;&#9;&#9;c-8.4-13.4-13-28.4-19.7-42.6c-9.1-19.6-28.6-45.3-54-38.5c-21.2,5.7-33.5,24-49,38c0.2-0.3,0.4-0.7,0.6-1&#10;&#9;&#9;c9.9-16.7,21.4-35.4,40-43.5c24.2-10.5,49.2-1,61.3,22.5c8.4,16.5,12.6,33.8,23.4,49.2c10.4,14.9,20.9,29.4,37.9,37&#10;&#9;&#9;c12.8,5.8,32.5,7.9,46.1,4.3c15.5-4.1,28-15.9,33.2-30.3C638,697.1,630.5,710.9,616.4,718.4z M391.1,635.7&#10;&#9;&#9;c8.9-19.4,21.2-40.3,41.1-50.2c22.7-11.4,48.2-9.4,66,10.1c14,15.5,21.5,34.3,31,52.6c13.5,25.9,41.2,61.3,75.3,48.1&#10;&#9;&#9;c14.2-5.5,29.6-20.1,31.9-35.7c1.7,16-4.4,33.7-19.7,41.5c-19.4,9.8-51.1,6.2-66.7-9.3c-13.4-13.2-26.1-30.9-32.7-48.8&#10;&#9;&#9;c-4.7-12.7-8.6-24.9-16.9-35.7c-15.2-20-42.2-27-64.8-15.1c-12.5,6.6-22.8,16.1-30.9,27.7c-7.2,10.3-12.3,22.1-21.2,30.4&#10;&#9;&#9;C386.5,646.5,388.7,640.8,391.1,635.7z" style="fill: rgb(101, 78, 53);" transform="matrix(1.0000000000000002, 0, 0, 1.0000000000000002, 1.4210854715202004e-14, 7.105427357601002e-15)"/></svg>