<?xml version="1.0" encoding="utf-8"?>
<svg id="master-artboard" viewBox="0 0 1400 980" version="1.1" xmlns="http://www.w3.org/2000/svg" x="0px" y="0px" style="enable-background:new 0 0 1400 980;" width="1400px" height="980px">

<radialGradient id="SVGID_1_" cx="700" cy="490" r="1030.8511" gradientTransform="matrix(1 0 0 0.7021 0 145.995)" gradientUnits="userSpaceOnUse">
		<stop offset="0" style="stop-color:#FFFAC6"/>
		<stop offset="0.2252" style="stop-color:#FFF9C3"/>
		<stop offset="0.3919" style="stop-color:#FFF5BA"/>
		<stop offset="0.5398" style="stop-color:#FFF1AC"/>
		<stop offset="0.6768" style="stop-color:#FFEB99"/>
		<stop offset="0.8062" style="stop-color:#FFE481"/>
		<stop offset="0.9284" style="stop-color:#FFDB61"/>
		<stop offset="1" style="stop-color:#FFD546"/>
	</radialGradient><path class="st1" d="M293.4,258.9c17.5-3.1,34.6-9.2,49.1-19.5c20.3-14.4,35.8-46.6,60.9-54c-26.1,0.9-40.4,26.3-59.2,42&#10;&#9;&#9;c-15,12.6-32.7,19.8-52.3,20.9c-21.5,1.2-50.5-0.9-74.6-10.3c11.2,8.1,23.4,14.8,36,20.4C266.6,259.9,279.6,261.4,293.4,258.9z" style="fill: rgb(243, 113, 33);" transform="matrix(1.0000000000000002, 0, 0, 1.0000000000000002, 1.4210854715202004e-14, 7.105427357601002e-15)"/><path class="st1" d="M375.9,257.6c-9.5,7.7-21.8,15.5-35,20.8c5.4-0.3,10.8-1,16.2-2.1c19.5-3.9,34.4-12.8,43-31.4&#10;&#9;&#9;c4.7-10.3,8-21.4,9.2-32.7C402.3,230.1,389.1,246.9,375.9,257.6z" style="fill: rgb(243, 113, 33);" transform="matrix(1.0000000000000002, 0, 0, 1.0000000000000002, 1.4210854715202004e-14, 7.105427357601002e-15)"/><path class="st1" d="M473.4,276.3c5.4,1.1,10.8,1.7,16.2,2.1c-13.1-5.3-25.5-13.2-35-20.8c-13.2-10.7-26.4-27.5-33.4-45.3&#10;&#9;&#9;c1.2,11.3,4.5,22.4,9.2,32.7C439,263.6,453.9,272.4,473.4,276.3z" style="fill: rgb(243, 113, 33);" transform="matrix(1.0000000000000002, 0, 0, 1.0000000000000002, 1.4210854715202004e-14, 7.105427357601002e-15)"/><path class="st1" d="M397.1,218c4.1-8.3,6.5-17,9.5-25.6c-18,7.1-27.3,21.9-41.1,36.1c-10.8,11.1-23.5,20.7-37.8,26.8&#10;&#9;&#9;c-15.4,6.6-34.5,11.8-52.9,11.9c12.8,4.6,26.1,8.1,39.6,10c7.1-1.2,14.1-2.3,21-5c13.9-5.4,27.4-12.7,38.2-23.2&#10;&#9;&#9;C383,240,391.4,229.7,397.1,218z" style="fill: rgb(243, 113, 33);" transform="matrix(1.0000000000000002, 0, 0, 1.0000000000000002, 1.4210854715202004e-14, 7.105427357601002e-15)"/><path class="st1" d="M472.7,146.8c23.5,7.9,40.1,29.8,60.8,42.5c23.6,14.4,68.6,13,90.4-4.2c8.8-7,13.9-16.3,17.2-26.5&#10;&#9;&#9;c-13.4,20.5-43.4,30.7-66.4,27.3c-23.4-3.5-40.9-15.1-59.3-29.2c-10-7.7-20.9-12-33.3-14.2c-11.3-2.1-27.1-4-37.8,1.8&#10;&#9;&#9;C453.6,142.4,463.8,143.8,472.7,146.8z" style="fill: rgb(243, 113, 33);" transform="matrix(1.0000000000000002, 0, 0, 1.0000000000000002, 1.4210854715202004e-14, 7.105427357601002e-15)"/><path class="st1" d="M306.4,153.3c15.1-11.8,30.9-18.5,50.2-19.7c6.1-0.4,13.9-1.2,21.2-0.5c-8-4.6-17.5-7.1-28.9-6.4&#10;&#9;&#9;c-34.8,2-61.4,20.8-92.7,33.4c-14.8,6-35.2,10.5-51.4,4.7c7.6,6.5,16.7,11.2,27.9,12.9C260.9,182,284.8,170.1,306.4,153.3z" style="fill: rgb(243, 113, 33);" transform="matrix(1.0000000000000002, 0, 0, 1.0000000000000002, 1.4210854715202004e-14, 7.105427357601002e-15)"/><path class="st1" d="M461.4,192.1c18.7,16.1,31.8,36.2,56.2,44.6c36.9,12.7,84.4,1.3,118.3-18.8c4.6-5.1,8.8-10.6,12.5-16.5&#10;&#9;&#9;c9.2-14.7,12.9-31.7,10.9-47.8c0.2,12.7-3.4,25.5-10.3,37.1c-13.4,22.2-38.5,31.7-63.1,34.9c-29.1,3.7-57.7,0.1-82-17.3&#10;&#9;&#9;c-23.9-17.1-45.3-48.4-77.7-39.5c-1,3-1.8,6.1-2.6,9.3C437.4,177,450.8,183,461.4,192.1z" style="fill: rgb(243, 113, 33);" transform="matrix(1.0000000000000002, 0, 0, 1.0000000000000002, 1.4210854715202004e-14, 7.105427357601002e-15)"/><path class="st1" d="M469.6,170c23.7,14.3,38.3,37,66,45.6c27.3,8.5,64.2,4.5,88.5-10.4c23.6-14.4,30.8-41.5,27-67.1&#10;&#9;&#9;c-1.1,15.1-5.8,30.2-13.9,42.6c-11.8,18.1-33.5,22.9-53.6,24.2c-25.1,1.7-46.6-2.4-66.7-18.1c-25.7-20.1-50.8-47.8-85.3-29.4&#10;&#9;&#9;c-0.2,0.1-0.5,0.2-0.7,0.2c-0.4,0.8-0.7,1.6-1.1,2.4C443.3,157.7,457.4,162.7,469.6,170z" style="fill: rgb(243, 113, 33);" transform="matrix(1.0000000000000002, 0, 0, 1.0000000000000002, 1.4210854715202004e-14, 7.105427357601002e-15)"/><path class="st1" d="M473.9,133.6c19.3,1.2,35,7.9,50.2,19.7c21.6,16.8,45.6,28.6,73.7,24.4c11.2-1.7,20.3-6.3,27.9-12.9&#10;&#9;&#9;c-16.2,5.8-36.6,1.3-51.4-4.7c-31.3-12.6-57.9-31.4-92.7-33.4c-11.4-0.7-20.9,1.8-28.9,6.4C460,132.4,467.8,133.2,473.9,133.6z" style="fill: rgb(243, 113, 33);" transform="matrix(1.0000000000000002, 0, 0, 1.0000000000000002, 1.4210854715202004e-14, 7.105427357601002e-15)"/><path class="st1" d="M206.6,185.1c21.8,17.2,66.8,18.6,90.4,4.2c20.7-12.6,37.3-34.5,60.8-42.5c8.8-3,19.1-4.4,28.4-2.6&#10;&#9;&#9;c-10.7-5.9-26.6-3.9-37.8-1.8c-12.3,2.3-23.3,6.6-33.3,14.2c-18.4,14.1-35.9,25.8-59.3,29.2c-23,3.4-53-6.8-66.4-27.3&#10;&#9;&#9;C192.7,168.8,197.8,178.1,206.6,185.1z" style="fill: rgb(243, 113, 33);" transform="matrix(1.0000000000000002, 0, 0, 1.0000000000000002, 1.4210854715202004e-14, 7.105427357601002e-15)"/><path class="st1" d="M206.5,205.3c24.3,14.9,61.2,18.9,88.5,10.4c27.7-8.6,42.3-31.3,66-45.6c12.2-7.3,26.3-12.3,39.9-9.8&#10;&#9;&#9;c-0.4-0.8-0.7-1.6-1.1-2.4c-0.2-0.1-0.5-0.1-0.7-0.2c-34.5-18.4-59.6,9.2-85.3,29.4c-20.1,15.7-41.7,19.8-66.7,18.1&#10;&#9;&#9;c-20.1-1.3-41.8-6.1-53.6-24.2c-8.1-12.4-12.8-27.5-13.9-42.6C175.7,163.8,182.9,190.8,206.5,205.3z" style="fill: rgb(243, 113, 33);" transform="matrix(1.0000000000000002, 0, 0, 1.0000000000000002, 1.4210854715202004e-14, 7.105427357601002e-15)"/><path class="st1" d="M194.6,217.9c33.9,20,81.5,31.5,118.3,18.8c24.4-8.4,37.5-28.5,56.2-44.6c10.5-9,23.9-15.1,37.7-14&#10;&#9;&#9;c-0.7-3.1-1.6-6.3-2.6-9.3c-32.4-8.9-53.8,22.4-77.7,39.5c-24.3,17.4-52.9,21-82,17.3c-24.6-3.2-49.7-12.7-63.1-34.9&#10;&#9;&#9;c-7-11.5-10.6-24.3-10.3-37.1c-2,16,1.7,33,10.9,47.8C185.8,207.3,190.1,212.7,194.6,217.9z" style="fill: rgb(243, 113, 33);" transform="matrix(1.0000000000000002, 0, 0, 1.0000000000000002, 1.4210854715202004e-14, 7.105427357601002e-15)"/><path class="st1" d="M538.6,248.3c-19.6-1.1-37.3-8.4-52.3-20.9c-18.8-15.7-33.1-41.1-59.2-42c25.1,7.4,40.7,39.6,60.9,54&#10;&#9;&#9;c14.5,10.4,31.7,16.4,49.1,19.5c13.7,2.5,26.7,1,40.1-0.4c12.6-5.7,24.8-12.4,36-20.4C589.1,247.4,560.1,249.6,538.6,248.3z" style="fill: rgb(243, 113, 33);" transform="matrix(1.0000000000000002, 0, 0, 1.0000000000000002, 1.4210854715202004e-14, 7.105427357601002e-15)"/><path class="st1" d="M464.9,228.6c-13.8-14.2-23-29.1-41.1-36.1c3,8.6,5.4,17.3,9.5,25.6c5.8,11.7,14.1,22,23.4,31.1&#10;&#9;&#9;c10.8,10.5,24.3,17.8,38.2,23.2c6.8,2.7,13.9,3.8,21,5c13.5-1.8,26.8-5.4,39.6-10c-18.4-0.1-37.5-5.2-52.9-11.9&#10;&#9;&#9;C488.4,249.2,475.7,239.7,464.9,228.6z" style="fill: rgb(243, 113, 33);" transform="matrix(1.0000000000000002, 0, 0, 1.0000000000000002, 1.4210854715202004e-14, 7.105427357601002e-15)"/><path class="st8" d="M213.6,246.8c24.8,17.5,54.5,29.7,84.4,35.8c0.2,0.4,0.5,0.7,0.9,0.8c3.7,0.9,7.5,1.3,11.4,1.4&#10;&#9;&#9;c28,4.1,63,3.1,84.5-17.3c9.8-9.3,16.6-22.2,20.4-36.6c-4.9-18.3-4.9-39.1,0-57.7c-0.5-1.9-1-3.8-1.6-5.7c0.2-1.2-0.1-2.4-1.1-3.2&#10;&#9;&#9;c-7.2-19.8-20.3-36.3-39.6-43.2c-30.7-11.1-67.5,5.1-94.6,18.6c-17.4,8.7-34,18.4-53.9,19.3c-23.7,1.1-50.1-24.4-29.8-46.3&#10;&#9;&#9;c0.5-0.5,0.7-1.1,0.8-1.7c1.6-2.9-2.4-7.3-5.5-5.1c-21.7,15.4-31.8,42.9-26.9,69.1C168.7,205.9,188.6,229.1,213.6,246.8z&#10;&#9;&#9; M217.3,238.1c24.1,9.3,53.1,11.5,74.6,10.3c19.6-1.1,37.3-8.4,52.3-20.9c18.8-15.7,33.1-41.1,59.2-42c-25.1,7.4-40.7,39.6-60.9,54&#10;&#9;&#9;c-14.5,10.4-31.7,16.4-49.1,19.5c-13.7,2.5-26.7,1-40.1-0.4C240.7,252.8,228.5,246.1,217.3,238.1z M314.5,277.2&#10;&#9;&#9;c-13.5-1.8-26.8-5.4-39.6-10c18.4-0.1,37.5-5.2,52.9-11.9c14.3-6.2,27-15.7,37.8-26.8c13.8-14.2,23-29.1,41.1-36.1&#10;&#9;&#9;c-3,8.6-5.4,17.3-9.5,25.6c-5.8,11.7-14.1,22-23.4,31.1c-10.8,10.5-24.3,17.8-38.2,23.2C328.6,274.9,321.6,276.1,314.5,277.2z&#10;&#9;&#9; M400.1,245c-8.5,18.6-23.4,27.4-43,31.4c-5.4,1.1-10.8,1.7-16.2,2.1c13.1-5.3,25.5-13.2,35-20.8c13.2-10.7,26.4-27.5,33.4-45.3&#10;&#9;&#9;C408.1,223.6,404.8,234.7,400.1,245z M256.2,160.2c31.3-12.6,57.9-31.4,92.7-33.4c11.4-0.7,20.9,1.8,28.9,6.4&#10;&#9;&#9;c-7.3-0.8-15.1,0.1-21.2,0.5c-19.3,1.2-35,7.9-50.2,19.7c-21.6,16.8-45.6,28.6-73.7,24.4c-11.2-1.7-20.3-6.3-27.9-12.9&#10;&#9;&#9;C221,170.6,241.4,166.2,256.2,160.2z M255.8,185.9c23.4-3.5,40.9-15.1,59.3-29.2c10-7.7,20.9-12,33.3-14.2&#10;&#9;&#9;c11.3-2.1,27.1-4,37.8,1.8c-9.3-1.9-19.5-0.4-28.4,2.6c-23.5,7.9-40.1,29.8-60.8,42.5c-23.6,14.4-68.6,13-90.4-4.2&#10;&#9;&#9;c-8.8-7-13.9-16.3-17.2-26.5C202.8,179,232.8,189.3,255.8,185.9z M179.4,138.2c1.1,15.1,5.8,30.2,13.9,42.6&#10;&#9;&#9;c11.8,18.1,33.5,22.9,53.6,24.2c25.1,1.7,46.6-2.4,66.7-18.1c25.7-20.1,50.8-47.8,85.3-29.4c0.2,0.1,0.5,0.2,0.7,0.2&#10;&#9;&#9;c0.4,0.8,0.7,1.6,1.1,2.4c-13.7-2.5-27.8,2.5-39.9,9.8c-23.7,14.3-38.3,37-66,45.6c-27.3,8.5-64.2,4.5-88.5-10.4&#10;&#9;&#9;C182.9,190.8,175.7,163.8,179.4,138.2z M171.3,153.6c-0.2,12.7,3.4,25.5,10.3,37.1c13.4,22.2,38.5,31.7,63.1,34.9&#10;&#9;&#9;c29.1,3.7,57.7,0.1,82-17.3c23.9-17.1,45.3-48.4,77.7-39.5c1,3,1.8,6.1,2.6,9.3c-13.8-1.1-27.2,4.9-37.7,14&#10;&#9;&#9;c-18.7,16.1-31.8,36.2-56.2,44.6c-36.9,12.7-84.4,1.3-118.3-18.8c-4.6-5.1-8.8-10.6-12.5-16.5C173,186.6,169.2,169.6,171.3,153.6z" style="fill: rgb(193, 90, 23);" transform="matrix(1.0000000000000002, 0, 0, 1.0000000000000002, 1.4210854715202004e-14, 7.105427357601002e-15)"/><path class="st8" d="M415.3,231c3.8,14.4,10.6,27.3,20.4,36.6c21.4,20.4,56.5,21.4,84.5,17.3c3.9-0.1,7.7-0.5,11.4-1.4&#10;&#9;&#9;c0.5-0.1,0.8-0.4,0.9-0.8c29.9-6.1,59.7-18.3,84.4-35.8c25-17.7,44.9-40.9,50.6-71.7c4.9-26.1-5.3-53.6-26.9-69.1&#10;&#9;&#9;c-3.2-2.3-7.1,2.2-5.5,5.1c0.1,0.6,0.3,1.1,0.8,1.7c20.3,21.9-6.1,47.4-29.8,46.3c-19.9-0.9-36.5-10.6-53.9-19.3&#10;&#9;&#9;c-27.1-13.5-63.9-29.7-94.6-18.6c-19.2,6.9-32.4,23.3-39.6,43.2c-1,0.8-1.3,2-1.1,3.2c-0.6,1.9-1.1,3.8-1.6,5.7&#10;&#9;&#9;C420.1,191.9,420.1,212.6,415.3,231z M516,277.2c-7.1-1.2-14.1-2.3-21-5c-13.9-5.4-27.4-12.7-38.2-23.2&#10;&#9;&#9;c-9.3-9.1-17.7-19.3-23.4-31.1c-4.1-8.3-6.5-17-9.5-25.6c18,7.1,27.3,21.9,41.1,36.1c10.8,11.1,23.5,20.7,37.8,26.8&#10;&#9;&#9;c15.4,6.6,34.5,11.8,52.9,11.9C542.8,271.8,529.5,275.4,516,277.2z M577.2,258.5c-13.3,1.4-26.3,2.9-40.1,0.4&#10;&#9;&#9;c-17.5-3.1-34.6-9.2-49.1-19.5c-20.3-14.4-35.8-46.6-60.9-54c26.1,0.9,40.4,26.3,59.2,42c15,12.6,32.7,19.8,52.3,20.9&#10;&#9;&#9;c21.5,1.2,50.5-0.9,74.6-10.3C602,246.1,589.8,252.8,577.2,258.5z M481.6,126.8c34.8,2,61.4,20.8,92.7,33.4&#10;&#9;&#9;c14.8,6,35.2,10.5,51.4,4.7c-7.6,6.5-16.7,11.2-27.9,12.9c-28.1,4.2-52.1-7.6-73.7-24.4c-15.1-11.8-30.9-18.5-50.2-19.7&#10;&#9;&#9;c-6.1-0.4-13.9-1.2-21.2-0.5C460.7,128.6,470.2,126.1,481.6,126.8z M482.1,142.4c12.3,2.3,23.3,6.6,33.3,14.2&#10;&#9;&#9;c18.4,14.1,35.9,25.8,59.3,29.2c23,3.4,53-6.8,66.4-27.3c-3.3,10.2-8.4,19.5-17.2,26.5c-21.8,17.2-66.8,18.6-90.4,4.2&#10;&#9;&#9;c-20.7-12.6-37.3-34.5-60.8-42.5c-8.8-3-19.1-4.4-28.4-2.6C455,138.4,470.9,140.3,482.1,142.4z M430.7,157.8&#10;&#9;&#9;c0.2-0.1,0.5-0.1,0.7-0.2c34.5-18.4,59.6,9.2,85.3,29.4c20.1,15.7,41.7,19.8,66.7,18.1c20.1-1.3,41.8-6.1,53.6-24.2&#10;&#9;&#9;c8.1-12.4,12.8-27.5,13.9-42.6c3.7,25.5-3.5,52.6-27,67.1c-24.3,14.9-61.2,18.9-88.5,10.4c-27.7-8.6-42.3-31.3-66-45.6&#10;&#9;&#9;c-12.2-7.3-26.3-12.3-39.9-9.8C430,159.4,430.3,158.6,430.7,157.8z M426.2,168.8c32.4-8.9,53.8,22.4,77.7,39.5&#10;&#9;&#9;c24.3,17.4,52.9,21,82,17.3c24.6-3.2,49.7-12.7,63.1-34.9c7-11.5,10.6-24.3,10.3-37.1c2,16-1.7,33-10.9,47.8&#10;&#9;&#9;c-3.7,5.9-7.9,11.4-12.5,16.5c-33.9,20-81.5,31.5-118.3,18.8c-24.4-8.4-37.5-28.5-56.2-44.6c-10.5-9-23.9-15.1-37.7-14&#10;&#9;&#9;C424.4,174.9,425.2,171.8,426.2,168.8z M454.6,257.6c9.5,7.7,21.8,15.5,35,20.8c-5.4-0.3-10.8-1-16.2-2.1&#10;&#9;&#9;c-19.5-3.9-34.4-12.8-43-31.4c-4.7-10.3-8-21.4-9.2-32.7C428.2,230.1,441.4,246.9,454.6,257.6z" style="fill: rgb(193, 90, 23);" transform="matrix(1.0000000000000002, 0, 0, 1.0000000000000002, 1.4210854715202004e-14, 7.105427357601002e-15)"/><path class="st1" d="M415.3,231c4.9-18.3,4.9-39.1,0-57.7C410.4,191.9,410.4,212.6,415.3,231z" style="fill: rgb(243, 113, 33);" transform="matrix(1.0000000000000002, 0, 0, 1.0000000000000002, 1.4210854715202004e-14, 7.105427357601002e-15)"/>

</svg>