<?xml version="1.0" encoding="utf-8"?>
<svg id="master-artboard" viewBox="0 0 1400 980" version="1.1" xmlns="http://www.w3.org/2000/svg" x="0px" y="0px" style="enable-background:new 0 0 1400 980;" width="1400px" height="980px">

<radialGradient id="SVGID_1_" cx="700" cy="490" r="1030.8511" gradientTransform="matrix(1 0 0 0.7021 0 145.995)" gradientUnits="userSpaceOnUse">
		<stop offset="0" style="stop-color:#FFFAC6"/>
		<stop offset="0.2252" style="stop-color:#FFF9C3"/>
		<stop offset="0.3919" style="stop-color:#FFF5BA"/>
		<stop offset="0.5398" style="stop-color:#FFF1AC"/>
		<stop offset="0.6768" style="stop-color:#FFEB99"/>
		<stop offset="0.8062" style="stop-color:#FFE481"/>
		<stop offset="0.9284" style="stop-color:#FFDB61"/>
		<stop offset="1" style="stop-color:#FFD546"/>
	</radialGradient>

<path class="st6" d="M840.3,859.6c23.4,9.9,45.7,22.4,69.9,30.5c19.5,6.6,56.5,11.6,68.2-6.9c-10.6,8.4-32.2,3.9-43.4,1.1&#10;&#9;&#9;c-19.3-4.9-36.4-16.7-52.8-27.5c-19.2-12.6-38.5-23-61.1-28c-23.6-5.3-47.9-2.6-70.7,4.8c-16,5.2-30.6,13.6-45.9,20.4&#10;&#9;&#9;C748,840.6,798.9,842,840.3,859.6z" style="fill: rgb(177, 118, 52);" transform="matrix(1.0000000000000002, 0, 0, 1.0000000000000002, 1.4210854715202004e-14, 7.105427357601002e-15)"/><path class="st6" d="M864.6,838.6c33,17.9,63.2,48.7,104,41.2c30.3-5.6-6.8-47.1-15-54.4c-1.9-1.6-3.8-3.1-5.8-4.5&#10;&#9;&#9;c4.2,3.9,8,8.3,11.6,13c6.8,8.8,21.2,34.3,1.5,37.6c-18.7,3.1-41.7-9.1-57.4-17.7c-22.4-12.2-42.5-27.9-66.2-37.5&#10;&#9;&#9;c-47.7-19.3-94.2-0.5-131.6,29C753.4,815.7,814.3,811.3,864.6,838.6z" style="fill: rgb(177, 118, 52);" transform="matrix(1.0000000000000002, 0, 0, 1.0000000000000002, 1.4210854715202004e-14, 7.105427357601002e-15)"/><path class="st6" d="M569.4,856.5c-29.3,7.2-55.4,22.5-83,34.3c-20.9,8.9-49.1,18.4-71.8,10.7c-14.7-5-29.9-19.7-23.7-35.8&#10;&#9;&#9;c0.2-5,1.7-10.1,4.1-14.8c10.8-20.8,28.9-37.8,50.7-45.7c-3,0.8-5.7,1.7-7.8,2.5c-9.7,3.8-19.3,8.9-27,16.1&#10;&#9;&#9;c-13.3,12.5-24.7,29.8-24.5,48.9c0.6,50.7,58.9,47.5,93.5,35.3c37.3-13.1,68.4-37.6,107.8-45.5c17.8-3.5,36.4-5.9,55.1-6.6&#10;&#9;&#9;C618.3,852.5,593.6,850.5,569.4,856.5z" style="fill: rgb(177, 118, 52);" transform="matrix(1.0000000000000002, 0, 0, 1.0000000000000002, 1.4210854715202004e-14, 7.105427357601002e-15)"/><path class="st6" d="M555.6,828.8c-22.6,5-41.9,15.4-61.1,28c-16.4,10.8-33.5,22.6-52.8,27.5c-11.1,2.8-32.8,7.2-43.4-1.1&#10;&#9;&#9;c11.7,18.5,48.7,13.5,68.2,6.9c24.2-8.1,46.5-20.6,69.9-30.5c41.4-17.6,92.3-19,135.8-5.6c-15.3-6.8-29.9-15.3-45.9-20.4&#10;&#9;&#9;C603.5,826.2,579.2,823.5,555.6,828.8z" style="fill: rgb(177, 118, 52);" transform="matrix(1.0000000000000002, 0, 0, 1.0000000000000002, 1.4210854715202004e-14, 7.105427357601002e-15)"/><path class="st6" d="M408.2,879.8c40.8,7.5,71-23.3,104-41.2c50.2-27.3,111.1-22.9,159,6.9c-37.4-29.6-83.9-48.3-131.6-29&#10;&#9;&#9;c-23.7,9.6-43.9,25.3-66.2,37.5c-15.7,8.6-38.8,20.8-57.4,17.7c-19.7-3.3-5.3-28.8,1.5-37.6c3.6-4.7,7.5-9.1,11.6-13&#10;&#9;&#9;c-2,1.4-3.9,2.9-5.8,4.5C415,832.7,377.9,874.2,408.2,879.8z" style="fill: rgb(177, 118, 52);" transform="matrix(1.0000000000000002, 0, 0, 1.0000000000000002, 1.4210854715202004e-14, 7.105427357601002e-15)"/><path class="st6" d="M965.9,823.9c-7.7-7.2-17.3-12.4-27-16.1c-2.1-0.8-4.8-1.7-7.8-2.5c21.8,7.9,39.9,24.9,50.7,45.7&#10;&#9;&#9;c2.4,4.7,4,9.8,4.1,14.8c6.2,16.1-9,30.8-23.7,35.8c-22.7,7.8-51-1.8-71.8-10.7c-27.6-11.7-53.7-27.1-83-34.3&#10;&#9;&#9;c-24.2-6-48.9-4-73.4-0.5c18.7,0.7,37.3,3,55.1,6.6c39.4,7.9,70.6,32.3,107.8,45.5c34.6,12.2,92.9,15.4,93.5-35.3&#10;&#9;&#9;C990.6,853.7,979.3,836.4,965.9,823.9z" style="fill: rgb(177, 118, 52);" transform="matrix(1.0000000000000002, 0, 0, 1.0000000000000002, 1.4210854715202004e-14, 7.105427357601002e-15)"/><path class="st14" d="M685.2,861.1c-1.6-0.7-2.6-2.9-1.1-4.7c1.4-1.6,2.8-3.3,4.2-4.8c-38.7-42.5-100.7-63.4-155.4-41.2&#10;&#9;&#9;c-30,12.2-54.6,34.3-84.5,46.8c-8.5,3.6-17.6,5.7-26.7,6.9c-20.2,2.5,6-32,6.8-32.9c5.6-6.8,12.5-12.1,20.1-16.5&#10;&#9;&#9;c6.1-3.5,12.9-5,19.8-5.6c8.4,1.7,7.7,6.6,3.5,13.6c-4.6,4.7-10.1,6.3-16.5,5c-3.5-0.5-5,4.3-1.5,5.4c18.5,5.5,32.3-15.9,25.8-25.8&#10;&#9;&#9;c-3-10.7-17.3-12.3-27.7-10.5c-20.4,3.4-38,13.1-52.1,28.2c-23.9,25.3-30.2,71.2,3.7,90.6c36.2,20.8,88.1-4,120.3-21.1&#10;&#9;&#9;c27.1-14.5,54-24.1,84.6-28c26.6-3.4,53.4-1,80-3.3c-0.3,0-0.7,0-1-0.1C686.3,862.8,685.5,862,685.2,861.1z M417.4,833.9&#10;&#9;&#9;c-6.8,8.8-21.2,34.3-1.5,37.6c18.7,3.1,41.7-9.1,57.4-17.7c22.4-12.2,42.5-27.9,66.2-37.5c47.7-19.3,94.2-0.5,131.6,29&#10;&#9;&#9;c-47.8-29.8-108.8-34.2-159-6.9c-33,17.9-63.2,48.7-104,41.2c-30.3-5.6,6.8-47.1,15-54.4c1.9-1.6,3.8-3.1,5.8-4.5&#10;&#9;&#9;C424.9,824.8,421,829.2,417.4,833.9z M587.7,862.6c-39.4,7.9-70.6,32.3-107.8,45.5c-34.6,12.2-92.9,15.4-93.5-35.3&#10;&#9;&#9;c-0.2-19,11.1-36.3,24.5-48.9c7.7-7.2,17.3-12.4,27-16.1c2.1-0.8,4.8-1.7,7.8-2.5c-21.8,7.9-39.9,24.9-50.7,45.7&#10;&#9;&#9;c-2.4,4.7-4,9.8-4.1,14.8c-6.2,16.1,9,30.8,23.7,35.8c22.7,7.8,51-1.8,71.8-10.7c27.6-11.7,53.7-27.1,83-34.3&#10;&#9;&#9;c24.2-6,48.9-4,73.4-0.5C624.1,856.7,605.4,859,587.7,862.6z M536.4,859.6c-23.4,9.9-45.7,22.4-69.9,30.5&#10;&#9;&#9;c-19.5,6.6-56.5,11.6-68.2-6.9c10.6,8.4,32.2,3.9,43.4,1.1c19.3-4.9,36.4-16.7,52.8-27.5c19.2-12.6,38.5-23,61.1-28&#10;&#9;&#9;c23.6-5.3,47.9-2.6,70.7,4.8c16,5.2,30.6,13.6,45.9,20.4C628.7,840.6,577.9,842,536.4,859.6z" style="fill: rgb(100, 66, 18);" transform="matrix(1.0000000000000002, 0, 0, 1.0000000000000002, 1.4210854715202004e-14, 7.105427357601002e-15)"/><path class="st14" d="M924.7,796.7c-10.4-1.8-24.7-0.2-27.7,10.5c-6.5,9.8,7.3,31.3,25.8,25.8c3.5-1,2-5.9-1.5-5.4&#10;&#9;&#9;c-6.4,1.4-11.9-0.3-16.5-5c-4.3-7-5-12,3.5-13.6c6.9,0.7,13.8,2.1,19.8,5.6c7.6,4.4,14.5,9.7,20.1,16.5c0.8,1,27,35.4,6.8,32.9&#10;&#9;&#9;c-9.2-1.1-18.2-3.3-26.7-6.9c-29.9-12.5-54.5-34.6-84.5-46.8c-54.7-22.2-116.7-1.3-155.4,41.2c1.4,1.6,2.9,3.2,4.2,4.8&#10;&#9;&#9;c1.5,1.8,0.5,4-1.1,4.7c-0.3,0.9-1.1,1.7-2.1,1.8c-0.3,0-0.7,0.1-1,0.1c26.6,2.3,53.4-0.1,80,3.3c30.6,3.9,57.4,13.6,84.6,28&#10;&#9;&#9;c32.2,17.2,84.1,41.9,120.3,21.1c33.9-19.5,27.5-65.3,3.7-90.6C962.6,809.8,945.1,800.1,924.7,796.7z M837.2,816.4&#10;&#9;&#9;c23.7,9.6,43.9,25.3,66.2,37.5c15.7,8.6,38.8,20.8,57.4,17.7c19.7-3.3,5.3-28.8-1.5-37.6c-3.6-4.7-7.5-9.1-11.6-13&#10;&#9;&#9;c2,1.4,3.9,2.9,5.8,4.5c8.3,7.3,45.3,48.8,15,54.4c-40.8,7.5-71-23.3-104-41.2c-50.2-27.3-111.1-22.9-159,6.9&#10;&#9;&#9;C743,815.9,789.5,797.1,837.2,816.4z M750.4,833.6c22.8-7.3,47.1-10,70.7-4.8c22.6,5,41.9,15.4,61.1,28&#10;&#9;&#9;c16.4,10.8,33.5,22.6,52.8,27.5c11.1,2.8,32.8,7.2,43.4-1.1c-11.7,18.5-48.7,13.5-68.2,6.9c-24.2-8.1-46.5-20.6-69.9-30.5&#10;&#9;&#9;c-41.4-17.6-92.3-19-135.8-5.6C719.8,847.2,734.4,838.7,750.4,833.6z M896.9,908c-37.3-13.1-68.4-37.6-107.8-45.5&#10;&#9;&#9;c-17.8-3.5-36.4-5.9-55.1-6.6c24.5-3.5,49.2-5.5,73.4,0.5c29.3,7.2,55.4,22.5,83,34.3c20.9,8.9,49.1,18.4,71.8,10.7&#10;&#9;&#9;c14.7-5,29.9-19.7,23.7-35.8c-0.2-5-1.7-10.1-4.1-14.8c-10.8-20.8-28.9-37.8-50.7-45.7c3,0.8,5.7,1.7,7.8,2.5&#10;&#9;&#9;c9.7,3.8,19.3,8.9,27,16.1c13.3,12.5,24.7,29.8,24.5,48.9C989.8,923.4,931.5,920.2,896.9,908z" style="fill: rgb(100, 66, 18);" transform="matrix(1.0000000000000002, 0, 0, 1.0000000000000002, 1.4210854715202004e-14, 7.105427357601002e-15)"/><path class="st6" d="M691.5,861.1c1.6-0.7,2.6-2.9,1.1-4.7c-1.4-1.6-2.8-3.3-4.2-4.8c-1.4,1.6-2.9,3.2-4.2,4.8&#10;&#9;&#9;c-1.5,1.8-0.5,4,1.1,4.7c0.3,0.9,1.1,1.7,2.1,1.8c0.3,0,0.7,0.1,1,0.1c0.3,0,0.7,0,1-0.1C690.4,862.8,691.2,862,691.5,861.1z" style="fill: rgb(177, 118, 52);" transform="matrix(1.0000000000000002, 0, 0, 1.0000000000000002, 1.4210854715202004e-14, 7.105427357601002e-15)"/></svg>