<?xml version="1.0" encoding="utf-8"?>
<svg id="master-artboard" viewBox="0 0 1400 980" version="1.1" xmlns="http://www.w3.org/2000/svg" x="0px" y="0px" enable-background="new 0 0 1400 980" width="1400px" height="980px">
<g transform="matrix(2.0053957825522053, -0.7793773671408336, 0.7793773671408336, 2.0053957825522053, -1469.7253516347919, 87.46212422002196)">
				<path fill="#504040" d="M957.9,662.7l-19.5,17.2c-2.4,2.1-6.3,1-7.1-2.2l-2.7-9.9c-0.9-3.2-4.9-4.3-7.3-2l-6.7,6.5&#10;&#9;&#9;&#9;&#9;&#9;c-2.4,2.3-6.4,1.2-7.3-2l-2.4-8.8c-0.9-3.2-4.8-4.3-7.2-2l-6.4,6c-2.4,2.3-6.4,1.1-7.2-2.1l-2.2-8.5c-0.9-3.5-5.3-4.4-7.6-1.7&#10;&#9;&#9;&#9;&#9;&#9;l-7.3,8.9c-3,3.7-8.9,0.6-7.6-4l4.3-14.7c3.7-12.7,17-19.9,29.7-16.2l60.6,17.8c5.4,1.6,8.5,7.2,6.9,12.6l0,0&#10;&#9;&#9;&#9;&#9;&#9;C960.4,659.8,959.4,661.5,957.9,662.7z"/>
			</g><path fill="#282020" d="M960.9,663.6l7.1,25c0.9,3.1,4.7,4.2,7.1,2l7.6-6.9c2.5-2.2,6.5-1,7.2,2.3l2.1,9.1&#10;&#9;&#9;&#9;&#9;&#9;c0.7,3.2,4.7,4.5,7.2,2.3l6.8-6.1c2.5-2.2,6.4-1,7.1,2.2l2.1,8.5c0.8,3.2,4.7,4.4,7.2,2.2l6.5-5.9c2.6-2.4,6.9-0.8,7.3,2.7&#10;&#9;&#9;&#9;&#9;&#9;l1.3,11.4c0.5,4.7,7.2,5.3,8.5,0.7l4.3-14.7c3.7-12.7-3.5-26-16.2-29.7l-60.6-17.8c-5.4-1.6-11.1,1.5-12.6,6.9l0,0&#10;&#9;&#9;&#9;&#9;&#9;C960.4,659.8,960.4,661.8,960.9,663.6z" transform="matrix(2.0053957825522053, -0.7793773671408336, 0.7793773671408336, 2.0053957825522053, -1469.7253516347919, 87.46212422002196)"/><g transform="matrix(2.0053957825522053, -0.7793773671408336, 0.7793773671408336, 2.0053957825522053, -1469.7253516347919, 87.46212422002196)">
					<path fill="#F9D39B" d="M973.6,593.7l-20,28.1c-1-0.6-2.1-1-3.2-1.4c-7.8-2.3-16,2.2-18.3,10c-2.3,7.8,2.2,16,10,18.3&#10;&#9;&#9;&#9;&#9;&#9;&#9;c2.5,0.7,5.1,0.8,7.5,0.2c0.9,5.5,4.8,10.2,10.4,11.9c0.1,0,0.1,0,0.2,0l20.6-69.9C978.2,590.4,975.4,591.2,973.6,593.7z"/>
				</g><path fill="#ECC584" d="M975.1,656.5c1.7,1.8,3.9,3.1,6.4,3.9c7.8,2.3,16-2.2,18.3-10c2.3-7.8-2.2-16-10-18.3&#10;&#9;&#9;&#9;&#9;&#9;&#9;c-1.1-0.3-2.2-0.5-3.3-0.6l-0.5-33.9c-0.1-3.6-2.5-6-5.4-6.6l-20.6,69.9C965.7,662.5,971.5,660.6,975.1,656.5z" transform="matrix(2.0053957825522053, -0.7793773671408336, 0.7793773671408336, 2.0053957825522053, -1469.7253516347919, 87.46212422002196)"/>
</svg>