<?xml version="1.0" encoding="utf-8"?>
<svg id="master-artboard" viewBox="0 0 1400 980" version="1.0" xmlns="http://www.w3.org/2000/svg" x="0px" y="0px" width="1400px" height="980px" enable-background="new 0 0 1400 980">


<path fill="#F51FFF" d="M813.5,792.5c-38.8,3.5-56.5,38.1-41.9,63.9c17.2,30.3,69.2,25.4,71-12.6c0.9-18.6-9.7-28.2-23-30.6&#10;&#9;&#9;&#9;&#9;c0.1,0,0.2,0.1,0.3,0.1c-1.5-0.3-3-0.4-4.5-0.4c-13.9,0-25.3,10.8-26.3,24.4c-0.1,1-0.2,2-0.2,3c0,12,9.7,21.7,21.7,21.7&#10;&#9;&#9;&#9;&#9;c12,0,21.7-9.7,21.7-21.7c0-2.8-0.5-5.4-1.5-7.9c1.9,3.3,2.9,7.1,2.9,11.1c0,11.4-8.4,20.7-19.4,22.3c-2.5,0.7-5.1,1.1-7.8,1.1&#10;&#9;&#9;&#9;&#9;c-15.7,0-28.5-12.7-28.5-28.5c0-12.3,7.2-19.2,7-19.2c7-8,17.3-13,28.7-13c21.1,0,38.1,17.1,38.1,38.1&#10;&#9;&#9;&#9;&#9;c0,21.1-14.6,36.7-48.6,36.7H775h-37.4H589.3c-5.6,0-10.2,0.7-10.2,1.5v13.8c0,0.8,4.6,1.5,10.2,1.5h225.3&#10;&#9;&#9;&#9;&#9;c31.1,0,51.6-27.3,51.6-52.6C866.1,816.1,842.5,789.9,813.5,792.5z" transform="matrix(1.0000000149011612, 0, 0, 1.0000000149011612, 0, 0)"/><path fill="#F97AFF" d="M590.1,881h-0.8c-3.3,0-6.1,0.2-8,0.6l4.4,16.1c1.1,0.1,2.3,0.1,3.6,0.1h5.4L590.1,881z" transform="matrix(1.0000000149011612, 0, 0, 1.0000000149011612, 0, 0)"/><path d="M 603.5999755859375 897.7000122070312 L 612.5999755859375 897.7000122070312 L 608 881 L 599 881 Z" fill="#F97AFF" transform="matrix(1.0000000149011612, 0, 0, 1.0000000149011612, 0, 0)"/><path d="M 621.5 897.7000122070312 L 630.5 897.7000122070312 L 625.9000244140625 881 L 616.9000244140625 881 Z" fill="#F97AFF" transform="matrix(1.0000000149011612, 0, 0, 1.0000000149011612, 0, 0)"/><path d="M 639.4000244140625 897.7000122070312 L 648.4000244140625 897.7000122070312 L 643.7999877929688 881 L 634.7999877929688 881 Z" fill="#F97AFF" transform="matrix(1.0000000149011612, 0, 0, 1.0000000149011612, 0, 0)"/><path d="M 657.2000122070312 897.7000122070312 L 666.2000122070312 897.7000122070312 L 661.7000122070312 881 L 652.5999755859375 881 Z" fill="#F97AFF" transform="matrix(1.0000000149011612, 0, 0, 1.0000000149011612, 0, 0)"/><path d="M 675.0999755859375 897.7000122070312 L 684.0999755859375 897.7000122070312 L 679.5 881 L 670.5 881 Z" fill="#F97AFF" transform="matrix(1.0000000149011612, 0, 0, 1.0000000149011612, 0, 0)"/><path d="M 693 897.7000122070312 L 702 897.7000122070312 L 697.4000244140625 881 L 688.4000244140625 881 Z" fill="#F97AFF" transform="matrix(1.0000000149011612, 0, 0, 1.0000000149011612, 0, 0)"/><path d="M 710.9000244140625 897.7000122070312 L 719.9000244140625 897.7000122070312 L 715.2999877929688 881 L 706.2999877929688 881 Z" fill="#F97AFF" transform="matrix(1.0000000149011612, 0, 0, 1.0000000149011612, 0, 0)"/><path d="M 724.2000122070312 881 L 728.7999877929688 897.7000122070312 L 737.7999877929688 897.7000122070312 L 733.2000122070312 881 Z" fill="#F97AFF" transform="matrix(1.0000000149011612, 0, 0, 1.0000000149011612, 0, 0)"/><path d="M 751.0999755859375 881 L 742.0999755859375 881 L 746.7000122070312 897.7000122070312 L 755.7000122070312 897.7000122070312 Z" fill="#F97AFF" transform="matrix(1.0000000149011612, 0, 0, 1.0000000149011612, 0, 0)"/><path d="M 764.5 897.7000122070312 L 773.5999755859375 897.7000122070312 L 769 881 L 759.9000244140625 881 Z" fill="#F97AFF" transform="matrix(1.0000000149011612, 0, 0, 1.0000000149011612, 0, 0)"/><path d="M 786.7000122070312 881 L 777.7000122070312 881 L 782.2000122070312 897.7000122070312 L 791.2999877929688 897.7000122070312 Z" fill="#F97AFF" transform="matrix(1.0000000149011612, 0, 0, 1.0000000149011612, 0, 0)"/><path fill="#F97AFF" d="M804.5,881c-0.4,0-0.8,0-1.2,0h-7.8l4.6,16.8h9L804.5,881z" transform="matrix(1.0000000149011612, 0, 0, 1.0000000149011612, 0, 0)"/><path fill="#F97AFF" d="M826.6,896.3l-4.7-17.2c-2.7,0.6-5.6,1.1-8.6,1.4l4.7,17.1C820.9,897.4,823.8,897,826.6,896.3z" transform="matrix(1.0000000149011612, 0, 0, 1.0000000149011612, 0, 0)"/><path d="M 826.3 839.599976 A 14.8 14.8 0 0 1 811.5 854.399976 A 14.8 14.8 0 0 1 796.7 839.599976 A 14.8 14.8 0 0 1 811.5 824.799975 A 14.8 14.8 0 0 1 826.3 839.599976 Z" fill="#A314A8" transform="matrix(1.0000000149011612, 0, 0, 1.0000000149011612, 0, 0)"/><path fill="#520E73" d="M583.8,875.1h-55.7c-1.4,0-2.5,1.1-2.5,2.5v4.5c-12.9,1.3-21.8,4-21.8,7.2c0,3.2,8.9,5.9,21.8,7.2v4.5&#10;&#9;&#9;&#9;c0,1.4,1.1,2.5,2.5,2.5h55.7c1.4,0,2.5-1.1,2.5-2.5v-23.5C586.3,876.2,585.2,875.1,583.8,875.1z" transform="matrix(1.0000000149011612, 0, 0, 1.0000000149011612, 0, 0)"/></svg>