<?xml version="1.0" encoding="utf-8"?>
<svg id="master-artboard" viewBox="0 0 1400 980" version="1.1" xmlns="http://www.w3.org/2000/svg" x="0px" y="0px" style="enable-background:new 0 0 1400 980;" width="1400px" height="980px"><rect id="ee-background" x="0" y="0" width="1400" height="980" style="fill: white; fill-opacity: 0; pointer-events: none;"/>


<linearGradient id="SVGID_1_" gradientUnits="userSpaceOnUse" x1="1241.7537" y1="161.2954" x2="1241.7537" y2="48.626">
			<stop offset="0" style="stop-color:#FFFFFF;stop-opacity:0.2"/>
			<stop offset="1" style="stop-color:#000000;stop-opacity:0.2"/>
		</linearGradient><linearGradient id="SVGID_2_" gradientUnits="userSpaceOnUse" x1="1062.6582" y1="161.2954" x2="1062.6582" y2="48.626">
			<stop offset="0" style="stop-color:#FFFFFF;stop-opacity:0.2"/>
			<stop offset="1" style="stop-color:#000000;stop-opacity:0.2"/>
		</linearGradient><linearGradient id="SVGID_3_" gradientUnits="userSpaceOnUse" x1="1241.6985" y1="161.2954" x2="1241.6985" y2="48.626">
			<stop offset="0" style="stop-color:#FFFFFF;stop-opacity:0"/>
			<stop offset="0.5" style="stop-color:#FFFFFF"/>
			<stop offset="1" style="stop-color:#FFFFFF;stop-opacity:0"/>
		</linearGradient><linearGradient id="SVGID_4_" gradientUnits="userSpaceOnUse" x1="1064.0688" y1="161.2954" x2="1064.0688" y2="48.626">
			<stop offset="0" style="stop-color:#FFFFFF;stop-opacity:0"/>
			<stop offset="0.5" style="stop-color:#FFFFFF"/>
			<stop offset="1" style="stop-color:#FFFFFF;stop-opacity:0"/>
		</linearGradient><linearGradient id="SVGID_5_" gradientUnits="userSpaceOnUse" x1="340.2375" y1="130.3897" x2="340.2375" y2="44.0363">
			<stop offset="0" style="stop-color:#FFFFFF;stop-opacity:0.2"/>
			<stop offset="1" style="stop-color:#000000;stop-opacity:0.2"/>
		</linearGradient><linearGradient id="SVGID_6_" gradientUnits="userSpaceOnUse" x1="160.7381" y1="130.3897" x2="160.7381" y2="44.0363">
			<stop offset="0" style="stop-color:#FFFFFF;stop-opacity:0.2"/>
			<stop offset="1" style="stop-color:#000000;stop-opacity:0.2"/>
		</linearGradient><linearGradient id="SVGID_7_" gradientUnits="userSpaceOnUse" x1="340.326" y1="130.3874" x2="340.326" y2="44.0361">
			<stop offset="0" style="stop-color:#FFFFFF;stop-opacity:0"/>
			<stop offset="0.5" style="stop-color:#FFFFFF"/>
			<stop offset="1" style="stop-color:#FFFFFF;stop-opacity:0"/>
		</linearGradient><linearGradient id="SVGID_8_" gradientUnits="userSpaceOnUse" x1="155.81" y1="130.3864" x2="155.81" y2="44.0391">
			<stop offset="0" style="stop-color:#FFFFFF;stop-opacity:0"/>
			<stop offset="0.5" style="stop-color:#FFFFFF"/>
			<stop offset="1" style="stop-color:#FFFFFF;stop-opacity:0"/>
		</linearGradient><linearGradient id="SVGID_9_" gradientUnits="userSpaceOnUse" x1="777.3352" y1="132.0706" x2="777.3352" y2="42.9661">
			<stop offset="0" style="stop-color:#FFFFFF;stop-opacity:0.2"/>
			<stop offset="1" style="stop-color:#000000;stop-opacity:0.2"/>
		</linearGradient><linearGradient id="SVGID_10_" gradientUnits="userSpaceOnUse" x1="603.0662" y1="132.0706" x2="603.0662" y2="42.9661">
			<stop offset="0" style="stop-color:#FFFFFF;stop-opacity:0.2"/>
			<stop offset="1" style="stop-color:#000000;stop-opacity:0.2"/>
		</linearGradient><linearGradient id="SVGID_11_" gradientUnits="userSpaceOnUse" x1="779.3801" y1="132.0576" x2="779.3801" y2="42.9756">
			<stop offset="0" style="stop-color:#FFFFFF;stop-opacity:0"/>
			<stop offset="0.5" style="stop-color:#FFFFFF"/>
			<stop offset="1" style="stop-color:#FFFFFF;stop-opacity:0"/>
		</linearGradient><linearGradient id="SVGID_12_" gradientUnits="userSpaceOnUse" x1="600.9534" y1="131.9741" x2="600.9534" y2="43.5664">
			<stop offset="0" style="stop-color:#FFFFFF;stop-opacity:0"/>
			<stop offset="0.5" style="stop-color:#FFFFFF"/>
			<stop offset="1" style="stop-color:#FFFFFF;stop-opacity:0"/>
		</linearGradient><linearGradient id="SVGID_13_" gradientUnits="userSpaceOnUse" x1="796.2253" y1="276.3257" x2="796.2253" y2="200.6064">
			<stop offset="0" style="stop-color:#FFFFFF;stop-opacity:0"/>
			<stop offset="0.5" style="stop-color:#FFFFFF"/>
			<stop offset="1" style="stop-color:#FFFFFF;stop-opacity:0"/>
		</linearGradient><linearGradient id="SVGID_14_" gradientUnits="userSpaceOnUse" x1="590.1475" y1="276.3257" x2="590.1475" y2="200.6064">
			<stop offset="0" style="stop-color:#FFFFFF;stop-opacity:0"/>
			<stop offset="0.5" style="stop-color:#FFFFFF"/>
			<stop offset="1" style="stop-color:#FFFFFF;stop-opacity:0"/>
		</linearGradient><linearGradient id="SVGID_15_" gradientUnits="userSpaceOnUse" x1="1254.0746" y1="317.7886" x2="1254.0746" y2="179.8524">
			<stop offset="0" style="stop-color:#FFFFFF;stop-opacity:0.2"/>
			<stop offset="1" style="stop-color:#000000;stop-opacity:0.2"/>
		</linearGradient><linearGradient id="SVGID_16_" gradientUnits="userSpaceOnUse" x1="1171.707" y1="248.8206" x2="1336.4424" y2="248.8206">
			<stop offset="0" style="stop-color:#C8A84C"/>
			<stop offset="1.957078e-02" style="stop-color:#CCAB4D"/>
			<stop offset="0.129" style="stop-color:#DEBA53"/>
			<stop offset="0.1963" style="stop-color:#E7C157"/>
			<stop offset="0.2266" style="stop-color:#E1BC55"/>
			<stop offset="0.3959" style="stop-color:#CEAD4E"/>
			<stop offset="0.5" style="stop-color:#C8A84C"/>
			<stop offset="0.7" style="stop-color:#E7C157"/>
			<stop offset="0.8028" style="stop-color:#DEBA53"/>
			<stop offset="0.9701" style="stop-color:#CCAB4D"/>
			<stop offset="1" style="stop-color:#C8A84C"/>
		</linearGradient><linearGradient id="SVGID_17_" gradientUnits="userSpaceOnUse" x1="1050.337" y1="317.7886" x2="1050.337" y2="179.8524">
			<stop offset="0" style="stop-color:#FFFFFF;stop-opacity:0.2"/>
			<stop offset="1" style="stop-color:#000000;stop-opacity:0.2"/>
		</linearGradient><linearGradient id="SVGID_18_" gradientUnits="userSpaceOnUse" x1="967.9702" y1="248.8206" x2="1132.7056" y2="248.8206">
			<stop offset="0" style="stop-color:#C8A84C"/>
			<stop offset="1.957078e-02" style="stop-color:#CCAB4D"/>
			<stop offset="0.129" style="stop-color:#DEBA53"/>
			<stop offset="0.1963" style="stop-color:#E7C157"/>
			<stop offset="0.2266" style="stop-color:#E1BC55"/>
			<stop offset="0.3959" style="stop-color:#CEAD4E"/>
			<stop offset="0.5" style="stop-color:#C8A84C"/>
			<stop offset="0.7" style="stop-color:#E7C157"/>
			<stop offset="0.8028" style="stop-color:#DEBA53"/>
			<stop offset="0.9701" style="stop-color:#CCAB4D"/>
			<stop offset="1" style="stop-color:#C8A84C"/>
		</linearGradient><linearGradient id="SVGID_19_" gradientUnits="userSpaceOnUse" x1="1082.7485" y1="183.2015" x2="1221.6641" y2="183.2015">
			<stop offset="0" style="stop-color:#C8A84C"/>
			<stop offset="1.957078e-02" style="stop-color:#CCAB4D"/>
			<stop offset="0.129" style="stop-color:#DEBA53"/>
			<stop offset="0.1963" style="stop-color:#E7C157"/>
			<stop offset="0.2266" style="stop-color:#E1BC55"/>
			<stop offset="0.3959" style="stop-color:#CEAD4E"/>
			<stop offset="0.5" style="stop-color:#C8A84C"/>
			<stop offset="0.7" style="stop-color:#E7C157"/>
			<stop offset="0.8028" style="stop-color:#DEBA53"/>
			<stop offset="0.9701" style="stop-color:#CCAB4D"/>
			<stop offset="1" style="stop-color:#C8A84C"/>
		</linearGradient><linearGradient id="SVGID_20_" gradientUnits="userSpaceOnUse" x1="1130.9688" y1="210.2264" x2="1173.4429" y2="210.2264">
			<stop offset="0" style="stop-color:#C8A84C"/>
			<stop offset="1.957078e-02" style="stop-color:#CCAB4D"/>
			<stop offset="0.129" style="stop-color:#DEBA53"/>
			<stop offset="0.1963" style="stop-color:#E7C157"/>
			<stop offset="0.2266" style="stop-color:#E1BC55"/>
			<stop offset="0.3959" style="stop-color:#CEAD4E"/>
			<stop offset="0.5" style="stop-color:#C8A84C"/>
			<stop offset="0.7" style="stop-color:#E7C157"/>
			<stop offset="0.8028" style="stop-color:#DEBA53"/>
			<stop offset="0.9701" style="stop-color:#CCAB4D"/>
			<stop offset="1" style="stop-color:#C8A84C"/>
		</linearGradient><linearGradient id="SVGID_21_" gradientUnits="userSpaceOnUse" x1="1334.7915" y1="241.1445" x2="1348.0615" y2="241.1445">
			<stop offset="0" style="stop-color:#C8A84C"/>
			<stop offset="1.957078e-02" style="stop-color:#CCAB4D"/>
			<stop offset="0.129" style="stop-color:#DEBA53"/>
			<stop offset="0.1963" style="stop-color:#E7C157"/>
			<stop offset="0.2266" style="stop-color:#E1BC55"/>
			<stop offset="0.3959" style="stop-color:#CEAD4E"/>
			<stop offset="0.5" style="stop-color:#C8A84C"/>
			<stop offset="0.7" style="stop-color:#E7C157"/>
			<stop offset="0.8028" style="stop-color:#DEBA53"/>
			<stop offset="0.9701" style="stop-color:#CCAB4D"/>
			<stop offset="1" style="stop-color:#C8A84C"/>
		</linearGradient><path d="M 1334.800049 238.899994 H 1348.100049 V 243.299994 H 1334.800049 V 238.899994 Z" class="st28" style="fill: url('#SVGID_21_');" transform="matrix(1.0000000149011612, 0, 0, 1.0000000149011612, 0, 0)"/><linearGradient id="SVGID_22_" gradientUnits="userSpaceOnUse" x1="956.3511" y1="241.1445" x2="969.6201" y2="241.1445">
			<stop offset="0" style="stop-color:#C8A84C"/>
			<stop offset="1.957078e-02" style="stop-color:#CCAB4D"/>
			<stop offset="0.129" style="stop-color:#DEBA53"/>
			<stop offset="0.1963" style="stop-color:#E7C157"/>
			<stop offset="0.2266" style="stop-color:#E1BC55"/>
			<stop offset="0.3959" style="stop-color:#CEAD4E"/>
			<stop offset="0.5" style="stop-color:#C8A84C"/>
			<stop offset="0.7" style="stop-color:#E7C157"/>
			<stop offset="0.8028" style="stop-color:#DEBA53"/>
			<stop offset="0.9701" style="stop-color:#CCAB4D"/>
			<stop offset="1" style="stop-color:#C8A84C"/>
		</linearGradient><linearGradient id="SVGID_23_" gradientUnits="userSpaceOnUse" x1="1259.4219" y1="316.3813" x2="1259.4219" y2="179.8531">
			<stop offset="0" style="stop-color:#FFFFFF;stop-opacity:0"/>
			<stop offset="0.5" style="stop-color:#FFFFFF"/>
			<stop offset="1" style="stop-color:#FFFFFF;stop-opacity:0"/>
		</linearGradient><linearGradient id="SVGID_24_" gradientUnits="userSpaceOnUse" x1="1040.8665" y1="317.7847" x2="1040.8665" y2="179.8531">
			<stop offset="0" style="stop-color:#FFFFFF;stop-opacity:0"/>
			<stop offset="0.5" style="stop-color:#FFFFFF"/>
			<stop offset="1" style="stop-color:#FFFFFF;stop-opacity:0"/>
		</linearGradient><linearGradient id="SVGID_25_" gradientUnits="userSpaceOnUse" x1="331.1497" y1="471.5024" x2="331.1497" y2="347.4897">
			<stop offset="0" style="stop-color:#FFFFFF;stop-opacity:0.2"/>
			<stop offset="1" style="stop-color:#000000;stop-opacity:0.2"/>
		</linearGradient><linearGradient id="SVGID_26_" gradientUnits="userSpaceOnUse" x1="169.8257" y1="471.5024" x2="169.8257" y2="347.4897">
			<stop offset="0" style="stop-color:#FFFFFF;stop-opacity:0.2"/>
			<stop offset="1" style="stop-color:#000000;stop-opacity:0.2"/>
		</linearGradient><linearGradient id="SVGID_27_" gradientUnits="userSpaceOnUse" x1="334.5808" y1="471.5024" x2="334.5808" y2="347.4897">
			<stop offset="0" style="stop-color:#FFFFFF;stop-opacity:0"/>
			<stop offset="0.5" style="stop-color:#FFFFFF"/>
			<stop offset="1" style="stop-color:#FFFFFF;stop-opacity:0"/>
		</linearGradient><linearGradient id="SVGID_28_" gradientUnits="userSpaceOnUse" x1="166.334" y1="471.5024" x2="166.334" y2="347.4897">
			<stop offset="0" style="stop-color:#FFFFFF;stop-opacity:0"/>
			<stop offset="0.5" style="stop-color:#FFFFFF"/>
			<stop offset="1" style="stop-color:#FFFFFF;stop-opacity:0"/>
		</linearGradient><linearGradient id="SVGID_29_" gradientUnits="userSpaceOnUse" x1="780.2502" y1="460.4492" x2="780.2502" y2="361.4385">
			<stop offset="0" style="stop-color:#FFFFFF;stop-opacity:0.2"/>
			<stop offset="1" style="stop-color:#000000;stop-opacity:0.2"/>
		</linearGradient><linearGradient id="SVGID_30_" gradientUnits="userSpaceOnUse" x1="600.1511" y1="460.4492" x2="600.1511" y2="361.4385">
			<stop offset="0" style="stop-color:#FFFFFF;stop-opacity:0.2"/>
			<stop offset="1" style="stop-color:#000000;stop-opacity:0.2"/>
		</linearGradient><linearGradient id="SVGID_31_" gradientUnits="userSpaceOnUse" x1="782.8008" y1="460.3794" x2="782.8008" y2="361.4385">
			<stop offset="0" style="stop-color:#FFFFFF;stop-opacity:0"/>
			<stop offset="0.5" style="stop-color:#FFFFFF"/>
			<stop offset="1" style="stop-color:#FFFFFF;stop-opacity:0"/>
		</linearGradient><linearGradient id="SVGID_32_" gradientUnits="userSpaceOnUse" x1="603.6818" y1="460.4331" x2="603.6818" y2="361.4385">
			<stop offset="0" style="stop-color:#FFFFFF;stop-opacity:0"/>
			<stop offset="0.5" style="stop-color:#FFFFFF"/>
			<stop offset="1" style="stop-color:#FFFFFF;stop-opacity:0"/>
		</linearGradient><linearGradient id="SVGID_33_" gradientUnits="userSpaceOnUse" x1="1255.5996" y1="460.8676" x2="1255.5996" y2="357.9592">
			<stop offset="0" style="stop-color:#FFFFFF;stop-opacity:0.2"/>
			<stop offset="1" style="stop-color:#000000;stop-opacity:0.2"/>
		</linearGradient><linearGradient id="SVGID_34_" gradientUnits="userSpaceOnUse" x1="1048.8127" y1="460.8676" x2="1048.8127" y2="357.9592">
			<stop offset="0" style="stop-color:#FFFFFF;stop-opacity:0.2"/>
			<stop offset="1" style="stop-color:#000000;stop-opacity:0.2"/>
		</linearGradient><linearGradient id="SVGID_35_" gradientUnits="userSpaceOnUse" x1="1258.939" y1="460.8193" x2="1258.939" y2="357.9771">
			<stop offset="0" style="stop-color:#FFFFFF;stop-opacity:0"/>
			<stop offset="0.5" style="stop-color:#FFFFFF"/>
			<stop offset="1" style="stop-color:#FFFFFF;stop-opacity:0"/>
		</linearGradient><linearGradient id="SVGID_36_" gradientUnits="userSpaceOnUse" x1="1046.3552" y1="460.8596" x2="1046.3552" y2="358.939">
			<stop offset="0" style="stop-color:#FFFFFF;stop-opacity:0"/>
			<stop offset="0.5" style="stop-color:#FFFFFF"/>
			<stop offset="1" style="stop-color:#FFFFFF;stop-opacity:0"/>
		</linearGradient><linearGradient id="SVGID_37_" gradientUnits="userSpaceOnUse" x1="1241.7537" y1="643.6108" x2="1241.7537" y2="530.9414">
			<stop offset="0" style="stop-color:#000000;stop-opacity:0.3"/>
			<stop offset="1" style="stop-color:#000000;stop-opacity:0.7"/>
		</linearGradient><linearGradient id="SVGID_38_" gradientUnits="userSpaceOnUse" x1="1062.6582" y1="643.6108" x2="1062.6582" y2="530.9414">
			<stop offset="0" style="stop-color:#000000;stop-opacity:0.3"/>
			<stop offset="1" style="stop-color:#000000;stop-opacity:0.7"/>
		</linearGradient><linearGradient id="SVGID_39_" gradientUnits="userSpaceOnUse" x1="1241.6985" y1="643.6108" x2="1241.6985" y2="530.9414">
			<stop offset="0" style="stop-color:#FFFFFF;stop-opacity:0"/>
			<stop offset="0.5" style="stop-color:#FFFFFF"/>
			<stop offset="1" style="stop-color:#FFFFFF;stop-opacity:0"/>
		</linearGradient><linearGradient id="SVGID_40_" gradientUnits="userSpaceOnUse" x1="1064.0688" y1="643.6108" x2="1064.0688" y2="530.9414">
			<stop offset="0" style="stop-color:#FFFFFF;stop-opacity:0"/>
			<stop offset="0.5" style="stop-color:#FFFFFF"/>
			<stop offset="1" style="stop-color:#FFFFFF;stop-opacity:0"/>
		</linearGradient><linearGradient id="SVGID_41_" gradientUnits="userSpaceOnUse" x1="340.2375" y1="612.7051" x2="340.2375" y2="526.3515">
			<stop offset="0" style="stop-color:#000000;stop-opacity:0.3"/>
			<stop offset="1" style="stop-color:#000000;stop-opacity:0.7"/>
		</linearGradient><linearGradient id="SVGID_42_" gradientUnits="userSpaceOnUse" x1="160.7381" y1="612.7051" x2="160.7381" y2="526.3515">
			<stop offset="0" style="stop-color:#000000;stop-opacity:0.3"/>
			<stop offset="1" style="stop-color:#000000;stop-opacity:0.7"/>
		</linearGradient><linearGradient id="SVGID_43_" gradientUnits="userSpaceOnUse" x1="340.326" y1="612.7028" x2="340.326" y2="526.3516">
			<stop offset="0" style="stop-color:#FFFFFF;stop-opacity:0"/>
			<stop offset="0.5" style="stop-color:#FFFFFF"/>
			<stop offset="1" style="stop-color:#FFFFFF;stop-opacity:0"/>
		</linearGradient><linearGradient id="SVGID_44_" gradientUnits="userSpaceOnUse" x1="155.81" y1="613.2595" x2="155.81" y2="526.9116">
			<stop offset="0" style="stop-color:#FFFFFF;stop-opacity:0"/>
			<stop offset="0.5" style="stop-color:#FFFFFF"/>
			<stop offset="1" style="stop-color:#FFFFFF;stop-opacity:0"/>
		</linearGradient><linearGradient id="SVGID_45_" gradientUnits="userSpaceOnUse" x1="777.3352" y1="614.3858" x2="777.3352" y2="525.2814">
			<stop offset="0" style="stop-color:#000000;stop-opacity:0.3"/>
			<stop offset="1" style="stop-color:#000000;stop-opacity:0.7"/>
		</linearGradient><linearGradient id="SVGID_46_" gradientUnits="userSpaceOnUse" x1="603.0662" y1="614.3858" x2="603.0662" y2="525.2814">
			<stop offset="0" style="stop-color:#000000;stop-opacity:0.3"/>
			<stop offset="1" style="stop-color:#000000;stop-opacity:0.7"/>
		</linearGradient><linearGradient id="SVGID_47_" gradientUnits="userSpaceOnUse" x1="779.3801" y1="614.373" x2="779.3801" y2="525.291">
			<stop offset="0" style="stop-color:#FFFFFF;stop-opacity:0"/>
			<stop offset="0.5" style="stop-color:#FFFFFF"/>
			<stop offset="1" style="stop-color:#FFFFFF;stop-opacity:0"/>
		</linearGradient><linearGradient id="SVGID_48_" gradientUnits="userSpaceOnUse" x1="600.9534" y1="614.2891" x2="600.9534" y2="525.8818">
			<stop offset="0" style="stop-color:#FFFFFF;stop-opacity:0"/>
			<stop offset="0.5" style="stop-color:#FFFFFF"/>
			<stop offset="1" style="stop-color:#FFFFFF;stop-opacity:0"/>
		</linearGradient><linearGradient id="SVGID_49_" gradientUnits="userSpaceOnUse" x1="796.2253" y1="758.6411" x2="796.2253" y2="682.9214">
			<stop offset="0" style="stop-color:#FFFFFF;stop-opacity:0"/>
			<stop offset="0.5" style="stop-color:#FFFFFF"/>
			<stop offset="1" style="stop-color:#FFFFFF;stop-opacity:0"/>
		</linearGradient><linearGradient id="SVGID_50_" gradientUnits="userSpaceOnUse" x1="590.1475" y1="758.6411" x2="590.1475" y2="682.9214">
			<stop offset="0" style="stop-color:#FFFFFF;stop-opacity:0"/>
			<stop offset="0.5" style="stop-color:#FFFFFF"/>
			<stop offset="1" style="stop-color:#FFFFFF;stop-opacity:0"/>
		</linearGradient><linearGradient id="SVGID_51_" gradientUnits="userSpaceOnUse" x1="1254.0746" y1="800.104" x2="1254.0746" y2="662.1678">
			<stop offset="0" style="stop-color:#000000;stop-opacity:0.3"/>
			<stop offset="1" style="stop-color:#000000;stop-opacity:0.7"/>
		</linearGradient><linearGradient id="SVGID_52_" gradientUnits="userSpaceOnUse" x1="1171.707" y1="731.1357" x2="1336.4424" y2="731.1357">
			<stop offset="0" style="stop-color:#95A3AB"/>
			<stop offset="8.475608e-02" style="stop-color:#A1AFB8"/>
			<stop offset="0.1576" style="stop-color:#A7B6BF"/>
			<stop offset="0.46" style="stop-color:#6B7B84"/>
			<stop offset="0.5361" style="stop-color:#6E7E87"/>
			<stop offset="0.6149" style="stop-color:#778790"/>
			<stop offset="0.695" style="stop-color:#8696A0"/>
			<stop offset="0.7755" style="stop-color:#9BADB6"/>
			<stop offset="0.8" style="stop-color:#A4B5BF"/>
			<stop offset="0.8412" style="stop-color:#9DAEB8"/>
			<stop offset="0.9083" style="stop-color:#8A9BA4"/>
			<stop offset="0.9925" style="stop-color:#6E7D87"/>
			<stop offset="1" style="stop-color:#6B7B84"/>
		</linearGradient><linearGradient id="SVGID_53_" gradientUnits="userSpaceOnUse" x1="1050.337" y1="800.104" x2="1050.337" y2="662.1678">
			<stop offset="0" style="stop-color:#000000;stop-opacity:0.3"/>
			<stop offset="1" style="stop-color:#000000;stop-opacity:0.7"/>
		</linearGradient><linearGradient id="SVGID_54_" gradientUnits="userSpaceOnUse" x1="967.9702" y1="731.1357" x2="1132.7056" y2="731.1357">
			<stop offset="0" style="stop-color:#95A3AB"/>
			<stop offset="8.475608e-02" style="stop-color:#A1AFB8"/>
			<stop offset="0.1576" style="stop-color:#A7B6BF"/>
			<stop offset="0.46" style="stop-color:#6B7B84"/>
			<stop offset="0.5361" style="stop-color:#6E7E87"/>
			<stop offset="0.6149" style="stop-color:#778790"/>
			<stop offset="0.695" style="stop-color:#8696A0"/>
			<stop offset="0.7755" style="stop-color:#9BADB6"/>
			<stop offset="0.8" style="stop-color:#A4B5BF"/>
			<stop offset="0.8412" style="stop-color:#9DAEB8"/>
			<stop offset="0.9083" style="stop-color:#8A9BA4"/>
			<stop offset="0.9925" style="stop-color:#6E7D87"/>
			<stop offset="1" style="stop-color:#6B7B84"/>
		</linearGradient><linearGradient id="SVGID_55_" gradientUnits="userSpaceOnUse" x1="1082.7485" y1="665.5168" x2="1221.6641" y2="665.5168">
			<stop offset="0" style="stop-color:#95A3AB"/>
			<stop offset="8.475608e-02" style="stop-color:#A1AFB8"/>
			<stop offset="0.1576" style="stop-color:#A7B6BF"/>
			<stop offset="0.46" style="stop-color:#6B7B84"/>
			<stop offset="0.5361" style="stop-color:#6E7E87"/>
			<stop offset="0.6149" style="stop-color:#778790"/>
			<stop offset="0.695" style="stop-color:#8696A0"/>
			<stop offset="0.7755" style="stop-color:#9BADB6"/>
			<stop offset="0.8" style="stop-color:#A4B5BF"/>
			<stop offset="0.8412" style="stop-color:#9DAEB8"/>
			<stop offset="0.9083" style="stop-color:#8A9BA4"/>
			<stop offset="0.9925" style="stop-color:#6E7D87"/>
			<stop offset="1" style="stop-color:#6B7B84"/>
		</linearGradient><linearGradient id="SVGID_56_" gradientUnits="userSpaceOnUse" x1="1130.9688" y1="692.5415" x2="1173.4429" y2="692.5415">
			<stop offset="0" style="stop-color:#95A3AB"/>
			<stop offset="8.475608e-02" style="stop-color:#A1AFB8"/>
			<stop offset="0.1576" style="stop-color:#A7B6BF"/>
			<stop offset="0.46" style="stop-color:#6B7B84"/>
			<stop offset="0.5361" style="stop-color:#6E7E87"/>
			<stop offset="0.6149" style="stop-color:#778790"/>
			<stop offset="0.695" style="stop-color:#8696A0"/>
			<stop offset="0.7755" style="stop-color:#9BADB6"/>
			<stop offset="0.8" style="stop-color:#A4B5BF"/>
			<stop offset="0.8412" style="stop-color:#9DAEB8"/>
			<stop offset="0.9083" style="stop-color:#8A9BA4"/>
			<stop offset="0.9925" style="stop-color:#6E7D87"/>
			<stop offset="1" style="stop-color:#6B7B84"/>
		</linearGradient><linearGradient id="SVGID_57_" gradientUnits="userSpaceOnUse" x1="1334.7915" y1="723.46" x2="1348.0615" y2="723.46">
			<stop offset="0" style="stop-color:#95A3AB"/>
			<stop offset="8.475608e-02" style="stop-color:#A1AFB8"/>
			<stop offset="0.1576" style="stop-color:#A7B6BF"/>
			<stop offset="0.46" style="stop-color:#6B7B84"/>
			<stop offset="0.5361" style="stop-color:#6E7E87"/>
			<stop offset="0.6149" style="stop-color:#778790"/>
			<stop offset="0.695" style="stop-color:#8696A0"/>
			<stop offset="0.7755" style="stop-color:#9BADB6"/>
			<stop offset="0.8" style="stop-color:#A4B5BF"/>
			<stop offset="0.8412" style="stop-color:#9DAEB8"/>
			<stop offset="0.9083" style="stop-color:#8A9BA4"/>
			<stop offset="0.9925" style="stop-color:#6E7D87"/>
			<stop offset="1" style="stop-color:#6B7B84"/>
		</linearGradient><linearGradient id="SVGID_58_" gradientUnits="userSpaceOnUse" x1="956.3511" y1="723.46" x2="969.6201" y2="723.46">
			<stop offset="0" style="stop-color:#95A3AB"/>
			<stop offset="8.475608e-02" style="stop-color:#A1AFB8"/>
			<stop offset="0.1576" style="stop-color:#A7B6BF"/>
			<stop offset="0.46" style="stop-color:#6B7B84"/>
			<stop offset="0.5361" style="stop-color:#6E7E87"/>
			<stop offset="0.6149" style="stop-color:#778790"/>
			<stop offset="0.695" style="stop-color:#8696A0"/>
			<stop offset="0.7755" style="stop-color:#9BADB6"/>
			<stop offset="0.8" style="stop-color:#A4B5BF"/>
			<stop offset="0.8412" style="stop-color:#9DAEB8"/>
			<stop offset="0.9083" style="stop-color:#8A9BA4"/>
			<stop offset="0.9925" style="stop-color:#6E7D87"/>
			<stop offset="1" style="stop-color:#6B7B84"/>
		</linearGradient><linearGradient id="SVGID_59_" gradientUnits="userSpaceOnUse" x1="1259.4219" y1="798.6968" x2="1259.4219" y2="662.1683">
			<stop offset="0" style="stop-color:#FFFFFF;stop-opacity:0"/>
			<stop offset="0.5" style="stop-color:#FFFFFF"/>
			<stop offset="1" style="stop-color:#FFFFFF;stop-opacity:0"/>
		</linearGradient><linearGradient id="SVGID_60_" gradientUnits="userSpaceOnUse" x1="1040.8665" y1="800.0996" x2="1040.8665" y2="662.1683">
			<stop offset="0" style="stop-color:#FFFFFF;stop-opacity:0"/>
			<stop offset="0.5" style="stop-color:#FFFFFF"/>
			<stop offset="1" style="stop-color:#FFFFFF;stop-opacity:0"/>
		</linearGradient><linearGradient id="SVGID_61_" gradientUnits="userSpaceOnUse" x1="331.1497" y1="953.8179" x2="331.1497" y2="829.8047">
			<stop offset="0" style="stop-color:#000000;stop-opacity:0.3"/>
			<stop offset="1" style="stop-color:#000000;stop-opacity:0.7"/>
		</linearGradient><linearGradient id="SVGID_62_" gradientUnits="userSpaceOnUse" x1="169.8257" y1="953.8179" x2="169.8257" y2="829.8047">
			<stop offset="0" style="stop-color:#000000;stop-opacity:0.3"/>
			<stop offset="1" style="stop-color:#000000;stop-opacity:0.7"/>
		</linearGradient><linearGradient id="SVGID_63_" gradientUnits="userSpaceOnUse" x1="334.5808" y1="953.8179" x2="334.5808" y2="829.8047">
			<stop offset="0" style="stop-color:#FFFFFF;stop-opacity:0"/>
			<stop offset="0.5" style="stop-color:#FFFFFF"/>
			<stop offset="1" style="stop-color:#FFFFFF;stop-opacity:0"/>
		</linearGradient><linearGradient id="SVGID_64_" gradientUnits="userSpaceOnUse" x1="166.334" y1="953.8179" x2="166.334" y2="829.8047">
			<stop offset="0" style="stop-color:#FFFFFF;stop-opacity:0"/>
			<stop offset="0.5" style="stop-color:#FFFFFF"/>
			<stop offset="1" style="stop-color:#FFFFFF;stop-opacity:0"/>
		</linearGradient><linearGradient id="SVGID_65_" gradientUnits="userSpaceOnUse" x1="780.2502" y1="942.7642" x2="780.2502" y2="843.7539">
			<stop offset="0" style="stop-color:#000000;stop-opacity:0.3"/>
			<stop offset="1" style="stop-color:#000000;stop-opacity:0.7"/>
		</linearGradient><linearGradient id="SVGID_66_" gradientUnits="userSpaceOnUse" x1="600.1511" y1="942.7642" x2="600.1511" y2="843.7539">
			<stop offset="0" style="stop-color:#000000;stop-opacity:0.3"/>
			<stop offset="1" style="stop-color:#000000;stop-opacity:0.7"/>
		</linearGradient><linearGradient id="SVGID_67_" gradientUnits="userSpaceOnUse" x1="782.8008" y1="942.6948" x2="782.8008" y2="843.7539">
			<stop offset="0" style="stop-color:#FFFFFF;stop-opacity:0"/>
			<stop offset="0.5" style="stop-color:#FFFFFF"/>
			<stop offset="1" style="stop-color:#FFFFFF;stop-opacity:0"/>
		</linearGradient><linearGradient id="SVGID_68_" gradientUnits="userSpaceOnUse" x1="603.6818" y1="942.7485" x2="603.6818" y2="843.7539">
			<stop offset="0" style="stop-color:#FFFFFF;stop-opacity:0"/>
			<stop offset="0.5" style="stop-color:#FFFFFF"/>
			<stop offset="1" style="stop-color:#FFFFFF;stop-opacity:0"/>
		</linearGradient><linearGradient id="SVGID_69_" gradientUnits="userSpaceOnUse" x1="1255.5996" y1="943.1829" x2="1255.5996" y2="840.2745">
			<stop offset="0" style="stop-color:#000000;stop-opacity:0.3"/>
			<stop offset="1" style="stop-color:#000000;stop-opacity:0.7"/>
		</linearGradient><linearGradient id="SVGID_70_" gradientUnits="userSpaceOnUse" x1="1048.8127" y1="943.1829" x2="1048.8127" y2="840.2745">
			<stop offset="0" style="stop-color:#000000;stop-opacity:0.3"/>
			<stop offset="1" style="stop-color:#000000;stop-opacity:0.7"/>
		</linearGradient><linearGradient id="SVGID_71_" gradientUnits="userSpaceOnUse" x1="1258.939" y1="943.1348" x2="1258.939" y2="840.2925">
			<stop offset="0" style="stop-color:#FFFFFF;stop-opacity:0"/>
			<stop offset="0.5" style="stop-color:#FFFFFF"/>
			<stop offset="1" style="stop-color:#FFFFFF;stop-opacity:0"/>
		</linearGradient><linearGradient id="SVGID_72_" gradientUnits="userSpaceOnUse" x1="1046.3552" y1="943.175" x2="1046.3552" y2="841.2539">
			<stop offset="0" style="stop-color:#FFFFFF;stop-opacity:0"/>
			<stop offset="0.5" style="stop-color:#FFFFFF"/>
			<stop offset="1" style="stop-color:#FFFFFF;stop-opacity:0"/>
		</linearGradient>
<path class="st22" d="M1251.9,179.9c29.2,0,82.9-3.6,82.9,59.1c0,62.7-33.8,78.8-62.4,78.8c-28.5,0-58.2-19.5-79.4-49.3&#10;&#9;&#9;&#9;c-9.5-13.4-20.7-33.5-19.6-50.5C1174.8,197.4,1195.3,179.9,1251.9,179.9z" style="fill: url('#SVGID_15_');" transform="matrix(1.0000000149011612, 0, 0, 1.0000000149011612, 0, 0)"/><path class="st23" d="M1272.4,319.4c-28.3,0-58.4-18.7-80.7-50c-8-11.2-21.2-32.8-19.9-51.5c1-14.8,12.7-39.7,80.1-39.7&#10;&#9;&#9;&#9;c1.5,0,3,0,4.6,0c1.7,0,3.5,0,5.3,0c24.3,0,74.7,0,74.7,60.7C1336.4,311.6,1291.7,319.4,1272.4,319.4z M1261.7,181.5&#10;&#9;&#9;&#9;c-1.8,0-3.6,0-5.2,0c-1.6,0-3.1,0-4.6,0c-47.9,0-75.2,13-76.8,36.6c-1.2,17.7,11.6,38.6,19.3,49.4c21.7,30.4,50.9,48.6,78,48.6&#10;&#9;&#9;&#9;c18.3,0,60.7-7.5,60.7-77.2C1333.1,188.5,1298.8,181.5,1261.7,181.5z" style="fill: url('#SVGID_16_');" transform="matrix(1.0000000149011612, 0, 0, 1.0000000149011612, 0, 0)"/><path class="st24" d="M1052.6,179.9c-29.2,0-82.9-3.6-82.9,59.1c0,62.7,33.8,78.8,62.4,78.8c28.5,0,58.2-19.5,79.4-49.3&#10;&#9;&#9;&#9;c9.5-13.4,20.7-33.5,19.6-50.5C1129.6,197.4,1109.1,179.9,1052.6,179.9z" style="fill: url('#SVGID_17_');" transform="matrix(1.0000000149011612, 0, 0, 1.0000000149011612, 0, 0)"/><path class="st25" d="M1032,319.4c28.2,0,58.4-18.7,80.7-50c8-11.2,21.2-32.8,19.9-51.5c-1-14.8-12.7-39.7-80.1-39.7&#10;&#9;&#9;&#9;c-1.5,0-3,0-4.6,0c-1.7,0-3.5,0-5.3,0c-24.3,0-74.7,0-74.7,60.7C968,311.6,1012.7,319.4,1032,319.4z M1042.7,181.5&#10;&#9;&#9;&#9;c1.8,0,3.6,0,5.2,0c1.6,0,3.1,0,4.6,0c47.9,0,75.2,13,76.8,36.6c1.2,17.7-11.6,38.6-19.3,49.4c-21.7,30.4-50.9,48.6-78,48.6&#10;&#9;&#9;&#9;c-18.3,0-60.7-7.5-60.7-77.2C971.3,188.5,1005.6,181.5,1042.7,181.5z" style="fill: url('#SVGID_18_');" transform="matrix(1.0000000149011612, 0, 0, 1.0000000149011612, 0, 0)"/><path d="M 1082.699951171875 181.60000610351562 L 1097.5999755859375 184.89999389648438 L 1206.9000244140625 184.89999389648438 L 1221.699951171875 181.60000610351562 Z" class="st26" style="fill: url('#SVGID_19_');" transform="matrix(1.0000000149011612, 0, 0, 1.0000000149011612, 0, 0)"/><path class="st27" d="M1152.2,200.9c-14.3,0-21.2,5.6-21.2,17.1c0,0.9,0.7,1.7,1.7,1.7c0.9,0,1.6-0.7,1.6-1.7&#10;&#9;&#9;&#9;c0-6.8,2.1-13.8,17.9-13.8c15.8,0,17.9,7,17.9,13.8c0,0.9,0.7,1.7,1.7,1.7s1.6-0.7,1.6-1.7&#10;&#9;&#9;&#9;C1173.4,206.4,1166.5,200.9,1152.2,200.9z" style="fill: url('#SVGID_20_');" transform="matrix(1.0000000149011612, 0, 0, 1.0000000149011612, 0, 0)"/><path d="M 956.400024 238.899994 H 969.700025 V 243.299994 H 956.400024 V 238.899994 Z" class="st29" style="fill: url('#SVGID_22_');" transform="matrix(1.0000000149011612, 0, 0, 1.0000000149011612, 0, 0)"/><path class="st30" d="M1292.9,182.4l-42.5,131.6c2.8,0.9,5.7,1.7,8.6,2.3l42.4-131.6C1298.6,183.9,1295.8,183.1,1292.9,182.4z&#10;&#9;&#9;&#9; M1254.7,179.9l-37.2,115.3c8.6,7.2,17.7,12.9,27.1,16.8l42.1-130.6C1275.5,179.7,1264,179.8,1254.7,179.9z" style="opacity: 0.7; fill: url('#SVGID_23_');" transform="matrix(1.0000000149011612, 0, 0, 1.0000000149011612, 0, 0)"/><path class="st31" d="M1052.6,179.9c-4.5,0-9.5-0.1-14.9,0l-41.1,127.4c9,6.4,19.2,9.4,29.2,10.2l44.2-137&#10;&#9;&#9;&#9;C1064.6,180.1,1058.8,179.9,1052.6,179.9z M1076.3,181.1l-44.1,136.7c3.2,0,6.4-0.3,9.5-0.7l43.5-134.7&#10;&#9;&#9;&#9;C1082.4,181.9,1079.4,181.4,1076.3,181.1z" style="opacity: 0.7; fill: url('#SVGID_24_');" transform="matrix(1.0000000149011612, 0, 0, 1.0000000149011612, 0, 0)"/><path d="M 1128.599976 63.400002 H 1175.799976 V 75.800001 H 1128.599976 V 63.400002 Z" class="st0" style="fill: rgb(230, 231, 232);" transform="matrix(1.0000000149011612, 0, 0, 1.0000000149011612, 0, 0)"/></svg>