<?xml version="1.0" encoding="UTF-8"?>
<svg  height="200" width="200" viewBox="0 0 184 247" version="1.1" xmlns="http://www.w3.org/2000/svg" xmlns:xlink="http://www.w3.org/1999/xlink">

<g style="" display="none">
    <rect x="-610.878" y="-250.879" style="" width="1478.926" height="487.476" display="inline" fill="#000000"/>
</g>
<g>
    <path d="M10.149,28.974c-1.952,0.039-3.503,1.653-3.465,3.605c0.249,12.656,10.755,22.952,23.419,22.952   c0.426,0,0.846-0.031,1.267-0.053v20.436c0,10.088,7.829,18.692,17.911,19.074c10.599,0.401,19.349-8.105,19.349-18.616V55.477   c0.421,0.023,0.841,0.053,1.267,0.053c12.71,0,23.246-10.371,23.421-23.091c0.026-1.908-1.56-3.451-3.468-3.466l-0.071-0.001   c-1.927-0.015-3.495,1.551-3.534,3.478c-0.18,8.828-7.511,16.008-16.349,16.008c-7.461,0-13.979-5.062-15.851-12.302   c-0.003-0.011-0.006-0.022-0.008-0.033c-0.404-1.597-0.048-3.292,0.839-4.68l11.748-18.39C68.85,9.569,66.347,5,62.212,5H37.787   c-4.136,0-6.639,4.569-4.412,8.054l11.748,18.39c0.887,1.388,1.244,3.084,0.839,4.68c-0.002,0.009-0.005,0.018-0.007,0.027   c-1.872,7.247-8.391,12.308-15.852,12.308c-8.841,0-16.175-7.187-16.349-16.02C13.714,30.487,12.103,28.941,10.149,28.974z    M38.44,53.977c3.009-1.15,5.735-2.904,8.023-5.14v16.997c0,1.953,1.583,3.536,3.536,3.536s3.536-1.583,3.536-3.536V48.837   c2.287,2.236,5.014,3.99,8.023,5.14V76.37c0,6.373-5.185,11.559-11.559,11.559c-6.373,0-11.559-5.185-11.559-11.559V53.977z"/>
</g>
</svg>