<svg height='200' width='200'  fill="#000000" xmlns="http://www.w3.org/2000/svg" xmlns:xlink="http://www.w3.org/1999/xlink" version="1.1" x="0px" y="0px" viewBox="0 0 91 91" enable-background="new 0 0 91 91" xml:space="preserve"><g><path d="M33.297,3.943c0.136-1.601-1.057-3.01-2.66-3.143c-10.756-0.915-18.514,8.841-18.839,9.257   c-0.99,1.264-0.766,3.088,0.495,4.081c0.532,0.419,1.166,0.623,1.798,0.623c0.86,0,1.712-0.379,2.289-1.105   c0.061-0.079,6.183-7.675,13.775-7.053C31.76,6.739,33.164,5.546,33.297,3.943z"></path><path d="M77.6,13.654c0.574,0.73,1.427,1.112,2.29,1.112c0.629,0,1.26-0.203,1.792-0.62c1.267-0.99,1.49-2.821,0.5-4.086   c-0.323-0.416-8.067-10.149-18.843-9.259c-1.603,0.132-2.79,1.542-2.659,3.143c0.136,1.603,1.539,2.796,3.144,2.66   C71.382,5.996,77.504,13.533,77.6,13.654z"></path><path d="M26.515,27.772c-1.5,0-2.718,1.218-2.718,2.72c0,1.497,1.218,2.715,2.718,2.715c1.497,0,2.717-1.218,2.717-2.715   C29.232,28.99,28.012,27.772,26.515,27.772z"></path><path d="M30.4,40.97c1.498,0,2.713-1.218,2.713-2.717c0-1.497-1.216-2.715-2.713-2.715c-1.5,0-2.719,1.218-2.719,2.715   C27.681,39.752,28.901,40.97,30.4,40.97z"></path><path d="M17.972,38.253c0,1.5,1.22,2.717,2.718,2.717c1.499,0,2.717-1.218,2.717-2.717c0-1.497-1.218-2.715-2.717-2.715   C19.192,35.538,17.972,36.756,17.972,38.253z"></path><path d="M68.408,27.772c-1.5,0-2.72,1.218-2.72,2.72c0,1.497,1.22,2.715,2.72,2.715c1.497,0,2.714-1.218,2.714-2.715   C71.122,28.99,69.905,27.772,68.408,27.772z"></path><path d="M72.29,40.97c1.497,0,2.717-1.218,2.717-2.717c0-1.497-1.22-2.715-2.717-2.715c-1.5,0-2.718,1.218-2.718,2.715   C69.572,39.752,70.79,40.97,72.29,40.97z"></path><path d="M62.583,35.538c-1.498,0-2.718,1.218-2.718,2.715c0,1.5,1.22,2.717,2.718,2.717c1.497,0,2.717-1.218,2.717-2.717   C65.3,36.756,64.08,35.538,62.583,35.538z"></path><path d="M87.005,29.167c-1.392-0.201-2.742,0.626-3.186,1.969C83.636,31.689,79.2,44.66,67.173,44.66   c-8.398,0-13.518-6.262-15.957-10.312c8.406-2.43,11.463-11.627,11.872-16.831c0.096-1.193-0.551-2.323-1.628-2.844   c-4.867-2.375-9.896-3.575-14.951-3.575c-8.679,0-14.431,3.577-14.672,3.73c-0.91,0.579-1.429,1.612-1.342,2.688   c0.419,5.314,3.59,14.797,12.413,16.976c-1.827,4.117-6.582,10.944-18.052,10.944c-15.67,0-17.233-13.125-17.29-13.672   c-0.151-1.563-1.505-2.706-3.079-2.629c-1.568,0.098-2.777,1.42-2.731,2.991c0.036,1.281,1.205,31.399,27.987,40.877   c0.088,9.753,7.698,17.662,17.051,17.662c9.37,0,17-7.947,17.05-17.734C90.06,63.339,89.505,32.281,89.495,31.96   C89.453,30.545,88.402,29.374,87.005,29.167z M58.211,48.737v24.098c0,6.725-5.122,12.194-11.418,12.194   c-6.297,0-11.422-5.47-11.422-12.194v-23.52c3.604-1.461,6.435-3.611,8.603-5.98v25.591c0,1.555,1.261,2.817,2.819,2.817   c1.555,0,2.817-1.263,2.817-2.817V41.976c2.168,2.495,5.01,4.966,8.618,6.599C58.227,48.629,58.211,48.68,58.211,48.737z"></path></g></svg>