<svg height='200' width='200'  fill="#000000" xmlns="http://www.w3.org/2000/svg" xmlns:xlink="http://www.w3.org/1999/xlink" version="1.1" x="0px" y="0px" viewBox="0 0 100 100" style="enable-background:new 0 0 100 100;" xml:space="preserve"><g><path d="M31.361,62.299c0-1.104-0.896-2-2-2s-2,0.896-2,2c0,3.093,1.152,6.05,3.243,8.325c0.395,0.429,0.933,0.646,1.473,0.646   c0.484,0,0.969-0.175,1.353-0.527c0.813-0.748,0.867-2.013,0.119-2.826C32.138,66.382,31.361,64.387,31.361,62.299z"></path><path d="M50.002,78.917c-1.104,0-2,0.896-2,2v3.225c0,1.104,0.896,2,2,2s2-0.896,2-2v-3.225   C52.002,79.813,51.107,78.917,50.002,78.917z"></path><path d="M78.479,42.634c0.108-0.246,0.17-0.516,0.17-0.801V16.71C78.648,10.253,72.251,5,64.387,5c-1.015,0-1.868,0.76-1.986,1.767   l-1.784,15.208c-1.404-0.264-2.846-0.392-4.317-0.347c-0.012,0-0.023-0.004-0.035-0.004c-0.009,0-0.018,0.003-0.027,0.003   c-0.018,0.001-0.035-0.001-0.052-0.001c-4.104,0.161-8.269,0.162-12.381-0.001c-1.487-0.053-2.945,0.074-4.366,0.337L37.658,6.767   C37.54,5.76,36.687,5,35.672,5c-7.864,0-14.261,5.253-14.261,11.71v25.123c0,0.24,0.049,0.467,0.127,0.68l-2.972,21.879   c-0.576,3.854,0.532,7.754,3.119,10.983c1.308,1.633,2.942,2.985,4.777,4.044c-0.125,0.454-0.211,0.92-0.211,1.401v4.39   c0,2.917,2.373,5.29,5.29,5.29h10.877C43.888,93.179,46.735,95,50,95c3.268,0,6.117-1.821,7.589-4.5H68.46   c2.917,0,5.29-2.373,5.29-5.29v-4.39c0-0.481-0.086-0.947-0.211-1.401c1.835-1.059,3.469-2.411,4.777-4.044   c2.587-3.229,3.695-7.131,3.123-10.958L78.479,42.634z M66.153,9.114c4.82,0.631,8.496,3.797,8.496,7.596v14.861   c-1.004-1.539-2.181-2.927-3.488-4.157c0.033-0.113,0.058-0.23,0.07-0.351l1-9.672c0.114-1.099-0.685-2.082-1.784-2.195   c-1.092-0.118-2.081,0.686-2.195,1.783l-0.786,7.602c-0.943-0.569-1.937-1.046-2.956-1.46L66.153,9.114z M33.906,9.114l1.64,13.985   c-0.99,0.399-1.952,0.863-2.871,1.408l-0.871-7.551c-0.127-1.097-1.12-1.883-2.216-1.758c-1.097,0.127-1.884,1.119-1.758,2.217   l1,8.672c0.042,0.365,0.183,0.693,0.388,0.967c-1.435,1.291-2.72,2.775-3.809,4.429V16.71C25.411,12.911,29.086,9.745,33.906,9.114   z M38.122,86.5v-0.292c0-1.104-0.896-2-2-2s-2,0.896-2,2V86.5H31.54c-0.711,0-1.29-0.579-1.29-1.29v-4.141   c1.366,0.419,2.789,0.706,4.258,0.812c2.278,0.165,4.575,0.289,6.848,0.382v4.093c0,0.049,0.007,0.096,0.007,0.145H38.122z M50,91   c-2.561,0-4.644-2.084-4.644-4.645V73.21c0.97-0.505,1.859-1.126,2.646-1.85v1.559v3.33c0,1.104,0.896,2,2,2s2-0.896,2-2v-3.33   v-1.59c0.792,0.73,1.679,1.354,2.648,1.854v13.172C54.651,88.916,52.564,91,50,91z M69.75,85.21c0,0.711-0.579,1.29-1.29,1.29   h-9.816c0.001-0.049,0.007-0.096,0.007-0.145v-4.093c1.077-0.044,2.155-0.092,3.232-0.152V82.5c0,1.104,0.896,2,2,2s2-0.896,2-2   v-0.667c1.331-0.123,2.624-0.383,3.867-0.764V85.21z M75.194,72.875c-2.321,2.898-5.962,4.727-9.992,5.016   c-2.164,0.158-4.363,0.276-6.551,0.367v-3.78c0.556,0.078,1.118,0.13,1.686,0.13c6.784,0,12.302-5.519,12.302-12.302   c0-1.104-0.896-2-2-2s-2,0.896-2,2c0,4.577-3.725,8.302-8.302,8.302c-1.02,0-2.015-0.187-2.985-0.565   c-0.188-0.07-0.37-0.151-0.565-0.244c-2.354-1.093-4.068-3.268-4.595-5.862c-0.089-0.392-0.142-0.808-0.158-1.237   c-0.004-0.101-0.023-0.197-0.041-0.293c0.002-0.036,0.011-0.069,0.011-0.105v-3.284c0.669-0.578,2.23-1.934,3.648-3.233   c2.143-1.961,1.951-5.035-0.603-6.646c-0.662-0.417-1.389-0.695-2.153-0.695h-5.786c-0.764,0-1.491,0.278-2.153,0.695   c-2.554,1.611-2.746,4.685-0.603,6.646c1.419,1.299,2.979,2.655,3.649,3.233V62.3c0,0.038,0.009,0.074,0.011,0.112   c-0.016,0.09-0.035,0.178-0.039,0.272c-0.146,3.299-2.239,6.194-5.337,7.379c-1.775,0.682-3.806,0.721-5.608,0.116   c-1.048-0.352-2.181,0.213-2.533,1.259c-0.352,1.047,0.212,2.181,1.259,2.532c1.259,0.423,2.578,0.638,3.921,0.638   c0.567,0,1.125-0.051,1.679-0.127v3.777c-2.177-0.09-4.377-0.209-6.56-0.367c-4.028-0.29-7.67-2.118-9.991-5.017   c-1.882-2.35-2.693-5.152-2.28-7.917l3.164-23.291c1.438-9.307,9.34-16.315,17.967-16.044c1.443,0.057,2.893,0.087,4.344,0.105   v2.898c0,1.104,0.896,2,2,2s2-0.896,2-2v-2.898c0.757-0.009,1.511-0.024,2.266-0.043v4.983c0,1.104,0.896,2,2,2s2-0.896,2-2v-4.982   c7.868,0.697,14.714,7.369,16.04,15.945l3.173,23.354C77.888,67.722,77.077,70.525,75.194,72.875z"></path><path d="M36.069,35.104c-2.246,0.414-4.171,1.795-5.284,3.789c-0.538,0.965-0.192,2.183,0.772,2.722   c0.309,0.172,0.643,0.253,0.973,0.253c0.702,0,1.382-0.369,1.749-1.025c0.53-0.949,1.447-1.607,2.516-1.804   c1.07-0.198,2.161,0.09,2.995,0.788c0.846,0.708,2.107,0.598,2.817-0.249c0.709-0.847,0.598-2.108-0.249-2.817   C40.607,35.295,38.315,34.695,36.069,35.104z"></path><path d="M64.536,35.104c-2.247-0.411-4.538,0.19-6.288,1.656c-0.847,0.709-0.958,1.971-0.249,2.817   c0.709,0.848,1.97,0.958,2.817,0.249c0.833-0.698,1.923-0.987,2.995-0.788c1.069,0.196,1.986,0.854,2.516,1.804   c0.366,0.656,1.047,1.025,1.749,1.025c0.33,0,0.664-0.081,0.973-0.253c0.964-0.539,1.31-1.757,0.772-2.722   C68.708,36.899,66.782,35.519,64.536,35.104z"></path></g></svg>