<svg height='200' width='200'  fill="#000000" xmlns="http://www.w3.org/2000/svg" viewBox="0 0 100 100" x="0px" y="0px"><defs><style>.cls-1{fill:none;}.cls-1,.cls-2{stroke:#000000;stroke-linecap:round;stroke-linejoin:round;stroke-width:2px;}</style></defs><title>thenounproject-dogbreeds</title><g><polyline class="cls-1" points="49.01 68.09 47.35 68.09 45.91 68.92 45.35 70.71 45.35 72.84 46.92 74.45 49.09 74.62 48.69 76.38 46.5 77.46 44.07 78.17 39.03 79.91 34.93 81.84 31.01 85.7"></polyline><polyline class="cls-1" points="47.66 71.36 47.66 72.1 45.35 72.84"></polyline><polyline class="cls-1" points="42.85 77.98 40.91 77.51 37.62 78.26 31.63 80.05 35.78 75.43 31.63 74.73 29.37 75.67 29.7 72.84 31.92 71.36 28.76 71.05 33.09 67.14 30.54 64.62"></polyline><path class="cls-1" d="M50,85.33l-4.39,4.09H38.9L31,85.7l-2.14.23-1.69-1.24v-2L25,84.1l-2.26.59V80.63l-2.71-.34L18.48,82V84.1l-1.8-4.37.79-2.14,2.26-1.13,2.59-1.69.45-2.37.56-3.16,3.38-2.82,5.87-2.75,6.09-1.31,5.64-.23,3.27,1,2.68,1.33"></path><polyline class="cls-1" points="27.77 65.29 24.36 66.03 19.93 68.98 19.01 70 17.53 66.95 20.58 61.05 16.68 63.26 22.23 54.96 17.44 58.65 20.95 50 17.62 51.63 19.65 46.47 17.25 43.7 13.66 41.95 16.68 40.65 14.49 34.75 13.66 26.81 16.06 27.27 17.99 27.27 15.96 22.75 18.18 17.49 19.47 14.82 23.07 14.82 27.77 16.57 31.01 19.25 31.01 16.02 35.06 20.26 38.66 25.06 41.98 30.14 44.02 35.21 48.08 37.06 50 37.89"></polyline><polyline class="cls-1" points="39.03 26.87 38.28 31.1 38.28 34.76 35.8 31.38 33.21 28.84 34.05 31.57 35.18 34.76 32.55 32.6 29.26 30.35 31.01 33.17 32.46 36.17 27.1 33.07 29.26 37.39 26.26 37.39 22.22 38.15 25.5 38.8 27.57 40.12 23.63 40.87 20.43 41.72 22.88 42.66 22.03 45.66 20.43 47.54 18.86 48.49"></polyline><circle class="cls-2" cx="37.65" cy="57.63" r="1.39"></circle><path class="cls-1" d="M49,68.09h3.64l1.44.83.57,1.79v2.13l-1.57,1.61-2.17.17.4,1.75,2.18,1.08,2.43.71,5,1.74,4.1,1.93L69,85.71"></path><polyline class="cls-1" points="52.34 71.36 52.34 72.11 54.65 72.85"></polyline><polyline class="cls-1" points="57.15 77.98 59.09 77.51 62.38 78.27 68.37 80.06 64.22 75.44 68.37 74.73 70.63 75.67 70.3 72.85 68.08 71.36 71.24 71.06 66.91 67.15 69.46 64.63"></polyline><path class="cls-1" d="M50.27,64.47l2.14-1.32,3.27-1,5.64.23,6.09,1.31,5.87,2.75,3.38,2.82.56,3.16.45,2.37,2.59,1.69,2.26,1.13.79,2.14-1.8,4.37V82l-1.58-1.69-2.71.34v4.06L75,84.1l-2.14-1.44v2l-1.69,1.24L69,85.71l-7.9,3.72H54.44L50,85.33"></path><polyline class="cls-1" points="72.23 65.3 75.64 66.04 80.07 68.99 80.99 70 82.47 66.96 79.42 61.05 83.32 63.27 77.77 54.96 82.56 58.65 79.05 50.01 82.38 51.64 80.35 46.47 82.75 43.7 86.34 41.95 83.32 40.66 85.51 34.76 86.34 26.82 83.94 27.28 82.01 27.28 84.04 22.76 81.82 17.5 80.53 14.82 76.93 14.82 72.23 16.58 68.99 19.25 68.99 16.02 64.94 20.27 61.34 25.07 58.02 30.14 55.98 35.22 51.92 37.06 50 37.9"></polyline><polyline class="cls-1" points="60.97 26.88 61.72 31.11 61.72 34.77 64.2 31.39 66.79 28.85 65.94 31.57 64.82 34.77 67.45 32.61 70.74 30.35 68.99 33.17 67.54 36.18 72.9 33.08 70.74 37.4 73.74 37.4 77.78 38.15 74.5 38.81 72.43 40.13 76.37 40.88 79.57 41.72 77.13 42.66 77.97 45.67 79.57 47.55 81.14 48.5"></polyline><circle class="cls-2" cx="62.35" cy="57.64" r="1.39"></circle><line class="cls-1" x1="53.21" y1="79.05" x2="46.99" y2="79.05"></line><polyline class="cls-1" points="40.77 53.31 37.35 50.98 33.41 53.01 29.81 57.82"></polyline><polyline class="cls-1" points="59.28 53.31 62.7 50.98 66.65 53.01 70.25 57.82"></polyline></g></svg>